<svg width="28" height="27" viewBox="0 0 28 27" fill="none" xmlns="http://www.w3.org/2000/svg">
<path d="M14.2682 0C6.81309 0 0.768219 6.04487 0.768219 13.5C0.768219 20.9551 6.81309 27 14.2682 27C21.7234 27 27.7682 20.9551 27.7682 13.5C27.7682 6.04487 21.7234 0 14.2682 0ZM14.2682 24.7098C8.07871 24.7098 3.0584 19.6895 3.0584 13.5C3.0584 7.31049 8.07871 2.29018 14.2682 2.29018C20.4577 2.29018 25.478 7.31049 25.478 13.5C25.478 19.6895 20.4577 24.7098 14.2682 24.7098Z" fill="white"/>
<path d="M12.487 7.96875C12.487 8.34171 12.6351 8.6994 12.8988 8.96312C13.1626 9.22684 13.5203 9.375 13.8932 9.375C14.2662 9.375 14.6239 9.22684 14.8876 8.96312C15.1513 8.6994 15.2995 8.34171 15.2995 7.96875C15.2995 7.59579 15.1513 7.2381 14.8876 6.97438C14.6239 6.71066 14.2662 6.5625 13.8932 6.5625C13.5203 6.5625 13.1626 6.71066 12.8988 6.97438C12.6351 7.2381 12.487 7.59579 12.487 7.96875ZM14.5963 11.25H13.1901C13.0612 11.25 12.9557 11.3555 12.9557 11.4844V19.4531C12.9557 19.582 13.0612 19.6875 13.1901 19.6875H14.5963C14.7253 19.6875 14.8307 19.582 14.8307 19.4531V11.4844C14.8307 11.3555 14.7253 11.25 14.5963 11.25Z" fill="white"/>
</svg>
