<svg width="30" height="27" viewBox="0 0 30 27" fill="none" xmlns="http://www.w3.org/2000/svg">
<path d="M29.0877 8.16279C29.0877 9.54281 28.8522 10.8768 28.3811 12.1648C27.9092 13.4528 27.2477 14.6489 26.3967 15.7529C26.1437 16.0749 25.8102 16.2704 25.3962 16.3394C24.9822 16.4084 24.6371 16.3049 24.3611 16.0289C24.1081 15.7759 23.9757 15.4594 23.9637 15.0794C23.9527 14.7004 24.0736 14.3499 24.3266 14.0279C24.9707 13.1768 25.4652 12.2509 25.8102 11.2499C26.1552 10.2498 26.3277 9.2208 26.3277 8.16279C26.3277 7.10478 26.1552 6.08127 25.8102 5.09226C25.4652 4.10325 24.9707 3.18324 24.3266 2.33223C24.0736 2.01022 23.9527 1.65924 23.9637 1.27927C23.9757 0.90023 24.1081 0.584206 24.3611 0.331204C24.6371 0.0552005 24.9822 -0.0483005 25.3962 0.0207002C25.8102 0.089701 26.1437 0.285203 26.3967 0.607207C27.2707 1.71122 27.9377 2.90125 28.3977 4.17731C28.8577 5.45428 29.0877 6.78277 29.0877 8.16279ZM23.5676 8.12829C23.5676 8.7953 23.4697 9.4508 23.2737 10.0948C23.0787 10.7388 22.7971 11.3368 22.4291 11.8888C22.1991 12.2108 21.8886 12.3948 21.4976 12.4408C21.1066 12.4868 20.7731 12.3718 20.4971 12.0958C20.2441 11.8428 20.1061 11.5208 20.0831 11.1298C20.0601 10.7388 20.1406 10.3823 20.3246 10.0603C20.4856 9.76131 20.6066 9.4508 20.6875 9.1288C20.7676 8.8068 20.8076 8.47329 20.8076 8.12829C20.8076 7.80629 20.7676 7.48428 20.6875 7.16228C20.6066 6.84028 20.4856 6.52977 20.3246 6.23077C20.1406 5.90877 20.0601 5.55226 20.0831 5.16126C20.1061 4.77025 20.2441 4.44825 20.4971 4.19525C20.7731 3.91924 21.1066 3.80424 21.4976 3.85024C21.8886 3.89624 22.1991 4.08025 22.4291 4.40225C22.7741 4.97725 23.0501 5.57526 23.2571 6.19627C23.4641 6.81728 23.5676 7.46128 23.5676 8.12829ZM11.113 15.9599C9.59498 15.9599 8.29547 15.4194 7.21446 14.3384C6.13344 13.2573 5.59294 11.9578 5.59294 10.4398C5.59294 8.9218 6.13344 7.62228 7.21446 6.54127C8.29547 5.46026 9.59498 4.91975 11.113 4.91975C12.631 4.91975 13.9305 5.46026 15.0115 6.54127C16.0926 7.62228 16.6331 8.9218 16.6331 10.4398C16.6331 11.9578 16.0926 13.2573 15.0115 14.3384C13.9305 15.4194 12.631 15.9599 11.113 15.9599ZM2.83291 27C2.0739 27 1.42437 26.73 0.884325 26.1899C0.343359 25.649 0.072876 24.999 0.072876 24.24V23.136C0.072876 22.3769 0.268378 21.6639 0.659382 20.9969C1.05039 20.3299 1.59089 19.8239 2.2809 19.4789C3.45391 18.8809 4.77643 18.3749 6.24844 17.9609C7.72046 17.5469 9.34198 17.3399 11.113 17.3399C12.884 17.3399 14.5055 17.5469 15.9776 17.9609C17.4496 18.3749 18.7721 18.8809 19.9451 19.4789C20.6351 19.8239 21.1756 20.3299 21.5666 20.9969C21.9576 21.6639 22.1531 22.3769 22.1531 23.136V24.24C22.1531 24.999 21.8831 25.649 21.3431 26.1899C20.8021 26.73 20.1521 27 19.3931 27H2.83291ZM2.83291 24.24H19.3931V23.136C19.3931 22.883 19.3301 22.653 19.204 22.4459C19.0771 22.2389 18.9101 22.0779 18.7031 21.9629C17.8751 21.5489 16.8115 21.1349 15.5125 20.7209C14.2125 20.3069 12.746 20.0999 11.113 20.0999C9.47998 20.0999 8.01348 20.3069 6.71351 20.7209C5.41445 21.1349 4.35092 21.5489 3.52291 21.9629C3.31591 22.0779 3.14939 22.2389 3.02335 22.4459C2.89639 22.653 2.83291 22.883 2.83291 23.136V24.24ZM11.113 13.1998C11.872 13.1998 12.522 12.9294 13.063 12.3884C13.603 11.8483 13.873 11.1988 13.873 10.4398C13.873 9.68081 13.603 9.03082 13.063 8.48985C12.522 7.94981 11.872 7.67978 11.113 7.67978C10.354 7.67978 9.70446 7.94981 9.16442 8.48985C8.62345 9.03082 8.35297 9.68081 8.35297 10.4398C8.35297 11.1988 8.62345 11.8483 9.16442 12.3884C9.70446 12.9294 10.354 13.1998 11.113 13.1998Z" fill="white"/>
</svg>
