<svg width="29" height="27" viewBox="0 0 29 27" fill="none" xmlns="http://www.w3.org/2000/svg">
<path d="M13.673 5.60351C15.8216 5.60351 17.8461 6.55598 19.3298 8.04493V8.04932C19.3298 7.33431 19.8109 6.79344 20.4757 6.79344H20.6446C21.6938 6.79344 21.904 7.78284 21.904 8.09506L21.9084 19.2072C21.8354 19.9354 22.6604 20.3118 23.1186 19.844C24.8995 18.012 27.034 10.4169 22.0095 6.0195C17.3237 1.91499 11.0346 2.59307 7.69082 4.89729C4.13687 7.35278 1.86519 12.7765 4.07179 17.8739C6.48155 23.4313 13.3705 25.0891 17.4706 23.4357C19.5461 22.5976 20.503 25.3996 18.3456 26.3169C15.0942 27.7038 6.03301 27.5622 1.80098 20.2336C-1.05819 15.283 -0.906916 6.57445 6.67943 2.06274C12.4778 -1.39095 20.1283 -0.434082 24.7403 4.38104C29.5598 9.41955 29.281 18.8466 24.5758 22.5114C22.4449 24.178 19.2805 22.5571 19.3034 20.1289L19.2797 19.3374C17.796 20.807 15.8216 21.6689 13.673 21.6689C9.42251 21.6689 5.68035 17.9258 5.68035 13.6797C5.68035 9.38789 9.42251 5.60527 13.673 5.60527V5.60351ZM19.0193 13.3728C18.8584 10.2621 16.5498 8.3888 13.7601 8.3888H13.6545C10.4392 8.3888 8.65297 10.9217 8.65297 13.7932C8.65297 17.0129 10.8103 19.0463 13.6413 19.0463C16.8013 19.0463 18.876 16.7341 19.0272 13.999L19.0193 13.3728Z" fill="white"/>
</svg>
