<svg width="1700" height="546" viewBox="0 0 1700 546" fill="none" xmlns="http://www.w3.org/2000/svg">
<path opacity="0.9" d="M179.851 379.984C179.851 314.475 129.985 293.942 80.853 293.942H18.2767V467.004H82.8085C130.474 467.004 179.851 440.849 179.851 379.984ZM136.341 379.984C136.341 418.606 108.719 430.827 78.8975 430.827H59.0979V329.63H79.8752C108.719 329.63 136.341 341.119 136.341 379.984ZM370.858 467.004V293.942H329.059V359.451H261.594V293.942H219.795V467.004H261.594V394.651H329.059V467.004H370.858ZM569.262 293.942H520.375L483.464 357.985L446.554 293.942H395.955L460.976 393.673V467.004H502.775V393.673L569.262 293.942ZM741.089 401.739V293.942H699.29V398.317C699.29 416.894 690.49 434.005 666.78 434.005C643.314 434.005 634.27 416.894 634.27 398.317V293.942H592.715V401.739C592.715 443.294 621.07 471.649 666.535 471.649C711.757 471.649 741.089 443.294 741.089 401.739ZM910.065 329.63V293.942H770.491V329.63H819.378V467.004H861.177V329.63H910.065ZM1092.43 467.004V293.942H1050.63V359.451H983.166V293.942H941.367V467.004H983.166V394.651H1050.63V467.004H1092.43ZM1182.3 467.004V293.942H1140.26V467.004H1182.3ZM1435.38 433.272V400.028H1411.43V293.942H1362.3L1291.9 398.806V433.272H1373.3V467.004H1411.67V433.272H1435.38ZM1373.54 400.028H1331.74L1372.81 335.985H1373.54V400.028ZM1517.39 445.494C1517.39 432.05 1506.15 421.539 1492.95 421.539C1479.26 421.539 1468.01 432.539 1468.01 445.738C1468.01 459.182 1479.5 469.449 1492.95 469.449C1506.15 469.449 1517.39 458.938 1517.39 445.494ZM1688.2 379.984C1688.2 331.097 1669.63 289.298 1620.74 289.298C1571.61 289.298 1552.79 331.097 1552.79 379.984C1552.79 429.116 1571.61 471.649 1620.74 471.649C1669.63 471.649 1688.2 429.116 1688.2 379.984ZM1646.16 379.984C1646.16 402.228 1642.25 436.45 1620.74 436.45C1598.98 436.45 1594.83 402.228 1594.83 379.984C1594.83 358.229 1598.98 324.008 1620.74 324.008C1642.25 324.008 1646.16 358.229 1646.16 379.984Z" fill="url(#paint0_linear_317_139)" fill-opacity="0.3"/>
<path opacity="0.9" d="M18.2767 161.94V160.62H16.9567V161.94H18.2767ZM18.2767 335.002H16.9567V336.322H18.2767V335.002ZM59.0979 298.825H57.7779V300.145H59.0979V298.825ZM59.0979 197.628V196.308H57.7779V197.628H59.0979ZM181.171 247.982C181.171 214.842 168.531 192.914 149.545 179.321C130.629 165.779 105.57 160.62 80.853 160.62V163.26C105.268 163.26 129.708 168.366 148.008 181.468C166.238 194.519 178.531 215.612 178.531 247.982H181.171ZM80.853 160.62H18.2767V163.26H80.853V160.62ZM16.9567 161.94V335.002H19.5967V161.94H16.9567ZM18.2767 336.322H82.8085V333.682H18.2767V336.322ZM82.8085 336.322C106.86 336.322 131.426 329.727 150.011 315.361C168.641 300.961 181.171 278.819 181.171 247.982H178.531C178.531 278.011 166.372 299.378 148.397 313.272C130.378 327.2 106.422 333.682 82.8085 333.682V336.322ZM135.021 247.982C135.021 266.939 128.265 279.228 118.016 286.826C107.699 294.475 93.6609 297.505 78.8975 297.505V300.145C93.9555 300.145 108.639 297.065 119.588 288.947C130.605 280.779 137.661 267.647 137.661 247.982H135.021ZM78.8975 297.505H59.0979V300.145H78.8975V297.505ZM60.418 298.825V197.628H57.7779V298.825H60.418ZM59.0979 198.948H79.8752V196.308H59.0979V198.948ZM79.8752 198.948C94.1565 198.948 107.95 201.798 118.142 209.294C128.264 216.738 135.021 228.901 135.021 247.982H137.661C137.661 228.197 130.607 215.184 119.706 207.167C108.877 199.202 94.4377 196.308 79.8752 196.308V198.948ZM370.858 335.002V336.322H372.178V335.002H370.858ZM370.858 161.94H372.178V160.62H370.858V161.94ZM329.059 161.94V160.62H327.739V161.94H329.059ZM329.059 227.449V228.769H330.379V227.449H329.059ZM261.594 227.449H260.274V228.769H261.594V227.449ZM261.594 161.94H262.914V160.62H261.594V161.94ZM219.795 161.94V160.62H218.475V161.94H219.795ZM219.795 335.002H218.475V336.322H219.795V335.002ZM261.594 335.002V336.322H262.914V335.002H261.594ZM261.594 262.648V261.328H260.274V262.648H261.594ZM329.059 262.648H330.379V261.328H329.059V262.648ZM329.059 335.002H327.739V336.322H329.059V335.002ZM372.178 335.002V161.94H369.538V335.002H372.178ZM370.858 160.62H329.059V163.26H370.858V160.62ZM327.739 161.94V227.449H330.379V161.94H327.739ZM329.059 226.129H261.594V228.769H329.059V226.129ZM262.914 227.449V161.94H260.274V227.449H262.914ZM261.594 160.62H219.795V163.26H261.594V160.62ZM218.475 161.94V335.002H221.115V161.94H218.475ZM219.795 336.322H261.594V333.682H219.795V336.322ZM262.914 335.002V262.648H260.274V335.002H262.914ZM261.594 263.968H329.059V261.328H261.594V263.968ZM327.739 262.648V335.002H330.379V262.648H327.739ZM329.059 336.322H370.858V333.682H329.059V336.322ZM569.262 161.94L570.361 162.672L571.729 160.62H569.262V161.94ZM520.375 161.94V160.62H519.612L519.231 161.281L520.375 161.94ZM483.464 225.983L482.321 226.642L483.464 228.626L484.608 226.642L483.464 225.983ZM446.554 161.94L447.698 161.281L447.317 160.62H446.554V161.94ZM395.955 161.94V160.62H393.519L394.85 162.661L395.955 161.94ZM460.976 261.671H462.296V261.278L462.082 260.95L460.976 261.671ZM460.976 335.002H459.656V336.322H460.976V335.002ZM502.775 335.002V336.322H504.095V335.002H502.775ZM502.775 261.671L501.677 260.938L501.455 261.271V261.671H502.775ZM569.262 160.62H520.375V163.26H569.262V160.62ZM519.231 161.281L482.321 225.323L484.608 226.642L521.518 162.599L519.231 161.281ZM484.608 225.323L447.698 161.281L445.41 162.599L482.321 226.642L484.608 225.323ZM446.554 160.62H395.955V163.26H446.554V160.62ZM394.85 162.661L459.87 262.392L462.082 260.95L397.061 161.219L394.85 162.661ZM459.656 261.671V335.002H462.296V261.671H459.656ZM460.976 336.322H502.775V333.682H460.976V336.322ZM504.095 335.002V261.671H501.455V335.002H504.095ZM503.873 262.403L570.361 162.672L568.164 161.207L501.677 260.938L503.873 262.403ZM741.089 161.94H742.409V160.62H741.089V161.94ZM699.29 161.94V160.62H697.97V161.94H699.29ZM634.27 161.94H635.59V160.62H634.27V161.94ZM592.715 161.94V160.62H591.395V161.94H592.715ZM742.409 269.737V161.94H739.769V269.737H742.409ZM741.089 160.62H699.29V163.26H741.089V160.62ZM697.97 161.94V266.315H700.61V161.94H697.97ZM697.97 266.315C697.97 275.421 695.81 284.019 690.887 290.312C686.004 296.553 678.281 300.683 666.78 300.683V303.323C678.989 303.323 687.522 298.898 692.966 291.939C698.37 285.032 700.61 275.786 700.61 266.315H697.97ZM666.78 300.683C655.404 300.683 647.678 296.556 642.762 290.309C637.807 284.013 635.59 275.414 635.59 266.315H632.95C632.95 275.794 635.254 285.038 640.688 291.942C646.16 298.895 654.689 303.323 666.78 303.323V300.683ZM635.59 266.315V161.94H632.95V266.315H635.59ZM634.27 160.62H592.715V163.26H634.27V160.62ZM591.395 161.94V269.737H594.035V161.94H591.395ZM591.395 269.737C591.395 290.824 598.596 308.662 611.661 321.226C624.721 333.787 643.526 340.967 666.535 340.967V338.327C644.079 338.327 625.974 331.329 613.491 319.323C601.011 307.322 594.035 290.205 594.035 269.737H591.395ZM666.535 340.967C689.423 340.967 708.406 333.787 721.677 321.234C734.955 308.675 742.409 290.837 742.409 269.737H739.769C739.769 290.192 732.558 307.308 719.863 319.316C707.163 331.329 688.869 338.327 666.535 338.327V340.967ZM910.065 197.628V198.948H911.385V197.628H910.065ZM910.065 161.94H911.385V160.62H910.065V161.94ZM770.491 161.94V160.62H769.171V161.94H770.491ZM770.491 197.628H769.171V198.948H770.491V197.628ZM819.378 197.628H820.698V196.308H819.378V197.628ZM819.378 335.002H818.058V336.322H819.378V335.002ZM861.177 335.002V336.322H862.497V335.002H861.177ZM861.177 197.628V196.308H859.857V197.628H861.177ZM911.385 197.628V161.94H908.745V197.628H911.385ZM910.065 160.62H770.491V163.26H910.065V160.62ZM769.171 161.94V197.628H771.811V161.94H769.171ZM770.491 198.948H819.378V196.308H770.491V198.948ZM818.058 197.628V335.002H820.698V197.628H818.058ZM819.378 336.322H861.177V333.682H819.378V336.322ZM862.497 335.002V197.628H859.857V335.002H862.497ZM861.177 198.948H910.065V196.308H861.177V198.948ZM1092.43 335.002V336.322H1093.75V335.002H1092.43ZM1092.43 161.94H1093.75V160.62H1092.43V161.94ZM1050.63 161.94V160.62H1049.31V161.94H1050.63ZM1050.63 227.449V228.769H1051.95V227.449H1050.63ZM983.166 227.449H981.846V228.769H983.166V227.449ZM983.166 161.94H984.486V160.62H983.166V161.94ZM941.367 161.94V160.62H940.047V161.94H941.367ZM941.367 335.002H940.047V336.322H941.367V335.002ZM983.166 335.002V336.322H984.486V335.002H983.166ZM983.166 262.648V261.328H981.846V262.648H983.166ZM1050.63 262.648H1051.95V261.328H1050.63V262.648ZM1050.63 335.002H1049.31V336.322H1050.63V335.002ZM1093.75 335.002V161.94H1091.11V335.002H1093.75ZM1092.43 160.62H1050.63V163.26H1092.43V160.62ZM1049.31 161.94V227.449H1051.95V161.94H1049.31ZM1050.63 226.129H983.166V228.769H1050.63V226.129ZM984.486 227.449V161.94H981.846V227.449H984.486ZM983.166 160.62H941.367V163.26H983.166V160.62ZM940.047 161.94V335.002H942.687V161.94H940.047ZM941.367 336.322H983.166V333.682H941.367V336.322ZM984.486 335.002V262.648H981.846V335.002H984.486ZM983.166 263.968H1050.63V261.328H983.166V263.968ZM1049.31 262.648V335.002H1051.95V262.648H1049.31ZM1050.63 336.322H1092.43V333.682H1050.63V336.322ZM1182.3 335.002V336.322H1183.62V335.002H1182.3ZM1182.3 161.94H1183.62V160.62H1182.3V161.94ZM1140.26 161.94V160.62H1138.94V161.94H1140.26ZM1140.26 335.002H1138.94V336.322H1140.26V335.002ZM1183.62 335.002V161.94H1180.98V335.002H1183.62ZM1182.3 160.62H1140.26V163.26H1182.3V160.62ZM1138.94 161.94V335.002H1141.58V161.94H1138.94ZM1140.26 336.322H1182.3V333.682H1140.26V336.322ZM1435.38 301.27V302.59H1436.7V301.27H1435.38ZM1435.38 268.026H1436.7V266.706H1435.38V268.026ZM1411.43 268.026H1410.11V269.346H1411.43V268.026ZM1411.43 161.94H1412.75V160.62H1411.43V161.94ZM1362.3 161.94V160.62H1361.59L1361.2 161.204L1362.3 161.94ZM1291.9 266.804L1290.8 266.068L1290.58 266.402V266.804H1291.9ZM1291.9 301.27H1290.58V302.59H1291.9V301.27ZM1373.3 301.27H1374.62V299.95H1373.3V301.27ZM1373.3 335.002H1371.98V336.322H1373.3V335.002ZM1411.67 335.002V336.322H1412.99V335.002H1411.67ZM1411.67 301.27V299.95H1410.35V301.27H1411.67ZM1373.54 268.026V269.346H1374.86V268.026H1373.54ZM1331.74 268.026L1330.63 267.313L1329.33 269.346H1331.74V268.026ZM1372.81 203.983V202.663H1372.09L1371.7 203.271L1372.81 203.983ZM1373.54 203.983H1374.86V202.663H1373.54V203.983ZM1436.7 301.27V268.026H1434.06V301.27H1436.7ZM1435.38 266.706H1411.43V269.346H1435.38V266.706ZM1412.75 268.026V161.94H1410.11V268.026H1412.75ZM1411.43 160.62H1362.3V163.26H1411.43V160.62ZM1361.2 161.204L1290.8 266.068L1293 267.54L1363.39 162.675L1361.2 161.204ZM1290.58 266.804V301.27H1293.22V266.804H1290.58ZM1291.9 302.59H1373.3V299.95H1291.9V302.59ZM1371.98 301.27V335.002H1374.62V301.27H1371.98ZM1373.3 336.322H1411.67V333.682H1373.3V336.322ZM1412.99 335.002V301.27H1410.35V335.002H1412.99ZM1411.67 302.59H1435.38V299.95H1411.67V302.59ZM1373.54 266.706H1331.74V269.346H1373.54V266.706ZM1332.85 268.739L1373.92 204.696L1371.7 203.271L1330.63 267.313L1332.85 268.739ZM1372.81 205.303H1373.54V202.663H1372.81V205.303ZM1372.22 203.983V268.026H1374.86V203.983H1372.22ZM1518.71 313.492C1518.71 299.275 1506.83 288.217 1492.95 288.217V290.857C1505.46 290.857 1516.07 300.819 1516.07 313.492H1518.71ZM1492.95 288.217C1478.56 288.217 1466.69 299.773 1466.69 313.736H1469.33C1469.33 301.299 1479.95 290.857 1492.95 290.857V288.217ZM1466.69 313.736C1466.69 327.994 1478.86 338.767 1492.95 338.767V336.127C1480.14 336.127 1469.33 326.366 1469.33 313.736H1466.69ZM1492.95 338.767C1506.83 338.767 1518.71 327.708 1518.71 313.492H1516.07C1516.07 326.164 1505.46 336.127 1492.95 336.127V338.767ZM1689.52 247.982C1689.52 223.404 1684.86 200.444 1673.91 183.587C1662.91 166.652 1645.63 155.975 1620.74 155.975V158.615C1644.74 158.615 1661.19 168.838 1671.7 185.025C1682.26 201.289 1686.88 223.672 1686.88 247.982H1689.52ZM1620.74 155.975C1595.73 155.975 1578.33 166.649 1567.23 183.583C1556.19 200.44 1551.47 223.401 1551.47 247.982H1554.11C1554.11 223.675 1558.79 201.293 1569.44 185.029C1580.04 168.841 1596.62 158.615 1620.74 158.615V155.975ZM1551.47 247.982C1551.47 272.684 1556.19 295.886 1567.23 312.956C1578.32 330.101 1595.72 340.967 1620.74 340.967V338.327C1596.63 338.327 1580.05 327.926 1569.45 311.522C1558.79 295.042 1554.11 272.412 1554.11 247.982H1551.47ZM1620.74 340.967C1645.64 340.967 1662.92 330.098 1673.92 312.951C1684.86 295.882 1689.52 272.682 1689.52 247.982H1686.88C1686.88 272.415 1682.26 295.046 1671.69 311.526C1661.18 327.929 1644.73 338.327 1620.74 338.327V340.967ZM1644.84 247.982C1644.84 259.06 1643.86 273.012 1640.26 284.15C1636.64 295.358 1630.58 303.127 1620.74 303.127V305.767C1632.41 305.767 1639.06 296.426 1642.77 284.962C1646.5 273.429 1647.48 259.148 1647.48 247.982H1644.84ZM1620.74 303.127C1610.76 303.127 1604.59 295.34 1600.88 284.141C1597.19 273.005 1596.15 259.055 1596.15 247.982H1593.51C1593.51 259.153 1594.55 273.436 1598.37 284.972C1602.18 296.444 1608.96 305.767 1620.74 305.767V303.127ZM1596.15 247.982C1596.15 237.155 1597.19 223.328 1600.88 212.253C1604.59 201.115 1610.76 193.326 1620.74 193.326V190.686C1608.96 190.686 1602.18 200.007 1598.37 211.418C1594.55 222.893 1593.51 237.054 1593.51 247.982H1596.15ZM1620.74 193.326C1630.58 193.326 1636.64 201.097 1640.26 212.244C1643.86 223.321 1644.84 237.15 1644.84 247.982H1647.48C1647.48 237.059 1646.5 222.9 1642.77 211.427C1639.06 200.025 1632.41 190.686 1620.74 190.686V193.326Z" fill="url(#paint1_linear_317_139)"/>
<path opacity="0.9" d="M18.2767 29.9375V28.6175H16.9567V29.9375H18.2767ZM18.2767 203H16.9567V204.32H18.2767V203ZM59.0979 166.823H57.7779V168.143H59.0979V166.823ZM59.0979 65.6255V64.3055H57.7779V65.6255H59.0979ZM181.171 115.98C181.171 82.84 168.531 60.9118 149.545 47.3193C130.629 33.7772 105.57 28.6175 80.853 28.6175V31.2575C105.268 31.2575 129.708 36.3642 148.008 49.4659C166.238 62.5172 178.531 83.6102 178.531 115.98H181.171ZM80.853 28.6175H18.2767V31.2575H80.853V28.6175ZM16.9567 29.9375V203H19.5967V29.9375H16.9567ZM18.2767 204.32H82.8085V201.68H18.2767V204.32ZM82.8085 204.32C106.86 204.32 131.426 197.724 150.011 183.359C168.641 168.959 181.171 146.817 181.171 115.98H178.531C178.531 146.008 166.372 167.376 148.397 181.27C130.378 195.198 106.422 201.68 82.8085 201.68V204.32ZM135.021 115.98C135.021 134.936 128.265 147.226 118.016 154.824C107.699 162.473 93.6609 165.503 78.8975 165.503V168.143C93.9555 168.143 108.639 165.063 119.588 156.945C130.605 148.777 137.661 135.645 137.661 115.98H135.021ZM78.8975 165.503H59.0979V168.143H78.8975V165.503ZM60.418 166.823V65.6255H57.7779V166.823H60.418ZM59.0979 66.9455H79.8752V64.3055H59.0979V66.9455ZM79.8752 66.9455C94.1565 66.9455 107.95 69.7953 118.142 77.2914C128.264 84.7354 135.021 96.8989 135.021 115.98H137.661C137.661 96.1951 130.607 83.1814 119.706 75.1646C108.877 67.2 94.4377 64.3055 79.8752 64.3055V66.9455ZM370.858 203V204.32H372.178V203H370.858ZM370.858 29.9375H372.178V28.6175H370.858V29.9375ZM329.059 29.9375V28.6175H327.739V29.9375H329.059ZM329.059 95.447V96.767H330.379V95.447H329.059ZM261.594 95.447H260.274V96.767H261.594V95.447ZM261.594 29.9375H262.914V28.6175H261.594V29.9375ZM219.795 29.9375V28.6175H218.475V29.9375H219.795ZM219.795 203H218.475V204.32H219.795V203ZM261.594 203V204.32H262.914V203H261.594ZM261.594 130.646V129.326H260.274V130.646H261.594ZM329.059 130.646H330.379V129.326H329.059V130.646ZM329.059 203H327.739V204.32H329.059V203ZM372.178 203V29.9375H369.538V203H372.178ZM370.858 28.6175H329.059V31.2575H370.858V28.6175ZM327.739 29.9375V95.447H330.379V29.9375H327.739ZM329.059 94.127H261.594V96.767H329.059V94.127ZM262.914 95.447V29.9375H260.274V95.447H262.914ZM261.594 28.6175H219.795V31.2575H261.594V28.6175ZM218.475 29.9375V203H221.115V29.9375H218.475ZM219.795 204.32H261.594V201.68H219.795V204.32ZM262.914 203V130.646H260.274V203H262.914ZM261.594 131.966H329.059V129.326H261.594V131.966ZM327.739 130.646V203H330.379V130.646H327.739ZM329.059 204.32H370.858V201.68H329.059V204.32ZM569.262 29.9375L570.361 30.6697L571.729 28.6175H569.262V29.9375ZM520.375 29.9375V28.6175H519.612L519.231 29.2783L520.375 29.9375ZM483.464 93.9804L482.321 94.6395L483.464 96.6239L484.608 94.6395L483.464 93.9804ZM446.554 29.9375L447.698 29.2783L447.317 28.6175H446.554V29.9375ZM395.955 29.9375V28.6175H393.519L394.85 30.6584L395.955 29.9375ZM460.976 129.668H462.296V129.276L462.082 128.948L460.976 129.668ZM460.976 203H459.656V204.32H460.976V203ZM502.775 203V204.32H504.095V203H502.775ZM502.775 129.668L501.677 128.936L501.455 129.269V129.668H502.775ZM569.262 28.6175H520.375V31.2575H569.262V28.6175ZM519.231 29.2783L482.321 93.3212L484.608 94.6395L521.518 30.5966L519.231 29.2783ZM484.608 93.3212L447.698 29.2783L445.41 30.5966L482.321 94.6395L484.608 93.3212ZM446.554 28.6175H395.955V31.2575H446.554V28.6175ZM394.85 30.6584L459.87 130.389L462.082 128.948L397.061 29.2166L394.85 30.6584ZM459.656 129.668V203H462.296V129.668H459.656ZM460.976 204.32H502.775V201.68H460.976V204.32ZM504.095 203V129.668H501.455V203H504.095ZM503.873 130.401L570.361 30.6697L568.164 29.2053L501.677 128.936L503.873 130.401ZM741.089 29.9375H742.409V28.6175H741.089V29.9375ZM699.29 29.9375V28.6175H697.97V29.9375H699.29ZM634.27 29.9375H635.59V28.6175H634.27V29.9375ZM592.715 29.9375V28.6175H591.395V29.9375H592.715ZM742.409 137.735V29.9375H739.769V137.735H742.409ZM741.089 28.6175H699.29V31.2575H741.089V28.6175ZM697.97 29.9375V134.313H700.61V29.9375H697.97ZM697.97 134.313C697.97 143.419 695.81 152.017 690.887 158.31C686.004 164.551 678.281 168.681 666.78 168.681V171.321C678.989 171.321 687.522 166.895 692.966 159.937C698.37 153.03 700.61 143.784 700.61 134.313H697.97ZM666.78 168.681C655.404 168.681 647.678 164.553 642.762 158.307C637.807 152.011 635.59 143.411 635.59 134.313H632.95C632.95 143.791 635.254 153.036 640.688 159.94C646.16 166.893 654.689 171.321 666.78 171.321V168.681ZM635.59 134.313V29.9375H632.95V134.313H635.59ZM634.27 28.6175H592.715V31.2575H634.27V28.6175ZM591.395 29.9375V137.735H594.035V29.9375H591.395ZM591.395 137.735C591.395 158.822 598.596 176.66 611.661 189.224C624.721 201.785 643.526 208.964 666.535 208.964V206.324C644.079 206.324 625.974 199.327 613.491 187.321C601.011 175.319 594.035 158.203 594.035 137.735H591.395ZM666.535 208.964C689.423 208.964 708.406 201.785 721.677 189.232C734.955 176.673 742.409 158.835 742.409 137.735H739.769C739.769 158.189 732.558 175.306 719.863 187.314C707.163 199.327 688.869 206.324 666.535 206.324V208.964ZM910.065 65.6255V66.9455H911.385V65.6255H910.065ZM910.065 29.9375H911.385V28.6175H910.065V29.9375ZM770.491 29.9375V28.6175H769.171V29.9375H770.491ZM770.491 65.6255H769.171V66.9455H770.491V65.6255ZM819.378 65.6255H820.698V64.3055H819.378V65.6255ZM819.378 203H818.058V204.32H819.378V203ZM861.177 203V204.32H862.497V203H861.177ZM861.177 65.6255V64.3055H859.857V65.6255H861.177ZM911.385 65.6255V29.9375H908.745V65.6255H911.385ZM910.065 28.6175H770.491V31.2575H910.065V28.6175ZM769.171 29.9375V65.6255H771.811V29.9375H769.171ZM770.491 66.9455H819.378V64.3055H770.491V66.9455ZM818.058 65.6255V203H820.698V65.6255H818.058ZM819.378 204.32H861.177V201.68H819.378V204.32ZM862.497 203V65.6255H859.857V203H862.497ZM861.177 66.9455H910.065V64.3055H861.177V66.9455ZM1092.43 203V204.32H1093.75V203H1092.43ZM1092.43 29.9375H1093.75V28.6175H1092.43V29.9375ZM1050.63 29.9375V28.6175H1049.31V29.9375H1050.63ZM1050.63 95.447V96.767H1051.95V95.447H1050.63ZM983.166 95.447H981.846V96.767H983.166V95.447ZM983.166 29.9375H984.486V28.6175H983.166V29.9375ZM941.367 29.9375V28.6175H940.047V29.9375H941.367ZM941.367 203H940.047V204.32H941.367V203ZM983.166 203V204.32H984.486V203H983.166ZM983.166 130.646V129.326H981.846V130.646H983.166ZM1050.63 130.646H1051.95V129.326H1050.63V130.646ZM1050.63 203H1049.31V204.32H1050.63V203ZM1093.75 203V29.9375H1091.11V203H1093.75ZM1092.43 28.6175H1050.63V31.2575H1092.43V28.6175ZM1049.31 29.9375V95.447H1051.95V29.9375H1049.31ZM1050.63 94.127H983.166V96.767H1050.63V94.127ZM984.486 95.447V29.9375H981.846V95.447H984.486ZM983.166 28.6175H941.367V31.2575H983.166V28.6175ZM940.047 29.9375V203H942.687V29.9375H940.047ZM941.367 204.32H983.166V201.68H941.367V204.32ZM984.486 203V130.646H981.846V203H984.486ZM983.166 131.966H1050.63V129.326H983.166V131.966ZM1049.31 130.646V203H1051.95V130.646H1049.31ZM1050.63 204.32H1092.43V201.68H1050.63V204.32ZM1182.3 203V204.32H1183.62V203H1182.3ZM1182.3 29.9375H1183.62V28.6175H1182.3V29.9375ZM1140.26 29.9375V28.6175H1138.94V29.9375H1140.26ZM1140.26 203H1138.94V204.32H1140.26V203ZM1183.62 203V29.9375H1180.98V203H1183.62ZM1182.3 28.6175H1140.26V31.2575H1182.3V28.6175ZM1138.94 29.9375V203H1141.58V29.9375H1138.94ZM1140.26 204.32H1182.3V201.68H1140.26V204.32ZM1435.38 169.267V170.587H1436.7V169.267H1435.38ZM1435.38 136.024H1436.7V134.704H1435.38V136.024ZM1411.43 136.024H1410.11V137.344H1411.43V136.024ZM1411.43 29.9375H1412.75V28.6175H1411.43V29.9375ZM1362.3 29.9375V28.6175H1361.59L1361.2 29.2017L1362.3 29.9375ZM1291.9 134.802L1290.8 134.066L1290.58 134.4V134.802H1291.9ZM1291.9 169.267H1290.58V170.587H1291.9V169.267ZM1373.3 169.267H1374.62V167.947H1373.3V169.267ZM1373.3 203H1371.98V204.32H1373.3V203ZM1411.67 203V204.32H1412.99V203H1411.67ZM1411.67 169.267V167.947H1410.35V169.267H1411.67ZM1373.54 136.024V137.344H1374.86V136.024H1373.54ZM1331.74 136.024L1330.63 135.311L1329.33 137.344H1331.74V136.024ZM1372.81 71.9809V70.6609H1372.09L1371.7 71.2684L1372.81 71.9809ZM1373.54 71.9809H1374.86V70.6609H1373.54V71.9809ZM1436.7 169.267V136.024H1434.06V169.267H1436.7ZM1435.38 134.704H1411.43V137.344H1435.38V134.704ZM1412.75 136.024V29.9375H1410.11V136.024H1412.75ZM1411.43 28.6175H1362.3V31.2575H1411.43V28.6175ZM1361.2 29.2017L1290.8 134.066L1293 135.537L1363.39 30.6732L1361.2 29.2017ZM1290.58 134.802V169.267H1293.22V134.802H1290.58ZM1291.9 170.587H1373.3V167.947H1291.9V170.587ZM1371.98 169.267V203H1374.62V169.267H1371.98ZM1373.3 204.32H1411.67V201.68H1373.3V204.32ZM1412.99 203V169.267H1410.35V203H1412.99ZM1411.67 170.587H1435.38V167.947H1411.67V170.587ZM1373.54 134.704H1331.74V137.344H1373.54V134.704ZM1332.85 136.736L1373.92 72.6934L1371.7 71.2684L1330.63 135.311L1332.85 136.736ZM1372.81 73.3009H1373.54V70.6609H1372.81V73.3009ZM1372.22 71.9809V136.024H1374.86V71.9809H1372.22ZM1518.71 181.489C1518.71 167.273 1506.83 156.214 1492.95 156.214V158.854C1505.46 158.854 1516.07 168.817 1516.07 181.489H1518.71ZM1492.95 156.214C1478.56 156.214 1466.69 167.771 1466.69 181.734H1469.33C1469.33 169.297 1479.95 158.854 1492.95 158.854V156.214ZM1466.69 181.734C1466.69 195.992 1478.86 206.764 1492.95 206.764V204.124C1480.14 204.124 1469.33 194.364 1469.33 181.734H1466.69ZM1492.95 206.764C1506.83 206.764 1518.71 195.706 1518.71 181.489H1516.07C1516.07 194.162 1505.46 204.124 1492.95 204.124V206.764ZM1689.52 115.98C1689.52 91.4018 1684.86 68.4422 1673.91 51.5846C1662.91 34.6497 1645.63 23.9731 1620.74 23.9731V26.6132C1644.74 26.6132 1661.19 36.8361 1671.7 53.0226C1682.26 69.2864 1686.88 91.6702 1686.88 115.98H1689.52ZM1620.74 23.9731C1595.73 23.9731 1578.33 34.6465 1567.23 51.5803C1556.19 68.4382 1551.47 91.3992 1551.47 115.98H1554.11C1554.11 91.6728 1558.79 69.2904 1569.44 53.0269C1580.04 36.8393 1596.62 26.6132 1620.74 26.6132V23.9731ZM1551.47 115.98C1551.47 140.682 1556.19 163.884 1567.23 180.953C1578.32 198.099 1595.72 208.964 1620.74 208.964V206.324C1596.63 206.324 1580.05 195.924 1569.45 179.52C1558.79 163.04 1554.11 140.41 1554.11 115.98H1551.47ZM1620.74 208.964C1645.64 208.964 1662.92 198.096 1673.92 180.949C1684.86 163.88 1689.52 140.679 1689.52 115.98H1686.88C1686.88 140.413 1682.26 163.044 1671.69 179.524C1661.18 195.927 1644.73 206.324 1620.74 206.324V208.964ZM1644.84 115.98C1644.84 127.058 1643.86 141.01 1640.26 152.148C1636.64 163.356 1630.58 171.125 1620.74 171.125V173.765C1632.41 173.765 1639.06 164.424 1642.77 152.96C1646.5 141.427 1647.48 127.146 1647.48 115.98H1644.84ZM1620.74 171.125C1610.76 171.125 1604.59 163.338 1600.88 152.139C1597.19 141.003 1596.15 127.053 1596.15 115.98H1593.51C1593.51 127.151 1594.55 141.434 1598.37 152.969C1602.18 164.442 1608.96 173.765 1620.74 173.765V171.125ZM1596.15 115.98C1596.15 105.153 1597.19 91.3255 1600.88 80.2509C1604.59 69.1131 1610.76 61.3234 1620.74 61.3234V58.6834C1608.96 58.6834 1602.18 68.0045 1598.37 79.4161C1594.55 90.891 1593.51 105.052 1593.51 115.98H1596.15ZM1620.74 61.3234C1630.58 61.3234 1636.64 69.0949 1640.26 80.2417C1643.86 91.3186 1644.84 105.148 1644.84 115.98H1647.48C1647.48 105.057 1646.5 90.8979 1642.77 79.4253C1639.06 68.0226 1632.41 58.6834 1620.74 58.6834V61.3234Z" fill="url(#paint2_linear_317_139)"/>
<defs>
<linearGradient id="paint0_linear_317_139" x1="850" y1="290.682" x2="850" y2="545.004" gradientUnits="userSpaceOnUse">
<stop stop-color="white" stop-opacity="0.934375"/>
<stop offset="1" stop-opacity="0"/>
</linearGradient>
<linearGradient id="paint1_linear_317_139" x1="850" y1="132.002" x2="850" y2="413.002" gradientUnits="userSpaceOnUse">
<stop stop-color="white"/>
<stop offset="0.0001" stop-color="white"/>
<stop offset="1" stop-opacity="0"/>
</linearGradient>
<linearGradient id="paint2_linear_317_139" x1="850" y1="0" x2="850" y2="281" gradientUnits="userSpaceOnUse">
<stop stop-color="white"/>
<stop offset="0.0001" stop-color="white"/>
<stop offset="1" stop-opacity="0"/>
</linearGradient>
</defs>
</svg>
