<svg width="1671" height="183" viewBox="0 0 1671 183" fill="none" xmlns="http://www.w3.org/2000/svg">
<path opacity="0.9" d="M0.276697 4.93968V3.61966H-1.04333V4.93968H0.276697ZM0.276697 178.002H-1.04333V179.322H0.276697V178.002ZM41.0979 141.825H39.7779V143.145H41.0979V141.825ZM41.0979 40.6277V39.3077H39.7779V40.6277H41.0979ZM163.171 90.9821C163.171 57.8422 150.531 35.914 131.545 22.3215C112.629 8.7794 87.5703 3.61966 62.853 3.61966V6.2597C87.2678 6.2597 111.708 11.3664 130.008 24.4681C148.238 37.5194 160.531 58.6124 160.531 90.9821H163.171ZM62.853 3.61966H0.276697V6.2597H62.853V3.61966ZM-1.04333 4.93968V178.002H1.59672V4.93968H-1.04333ZM0.276697 179.322H64.8085V176.682H0.276697V179.322ZM64.8085 179.322C88.8603 179.322 113.426 172.727 132.011 158.361C150.641 143.961 163.171 121.819 163.171 90.9821H160.531C160.531 121.011 148.372 142.378 130.397 156.272C112.378 170.2 88.4222 176.682 64.8085 176.682V179.322ZM117.021 90.9821C117.021 109.939 110.265 122.228 100.016 129.826C89.6994 137.475 75.6609 140.505 60.8975 140.505V143.145C75.9555 143.145 90.6386 140.065 101.588 131.947C112.605 123.779 119.661 110.647 119.661 90.9821H117.021ZM60.8975 140.505H41.0979V143.145H60.8975V140.505ZM42.418 141.825V40.6277H39.7779V141.825H42.418ZM41.0979 41.9477H61.8752V39.3077H41.0979V41.9477ZM61.8752 41.9477C76.1565 41.9477 89.9499 44.7975 100.142 52.2936C110.264 59.7376 117.021 71.9011 117.021 90.9821H119.661C119.661 71.1973 112.607 58.1836 101.706 50.1668C90.877 42.2022 76.4377 39.3077 61.8752 39.3077V41.9477ZM352.858 178.002V179.322H354.178V178.002H352.858ZM352.858 4.93968H354.178V3.61966H352.858V4.93968ZM311.059 4.93968V3.61966H309.739V4.93968H311.059ZM311.059 70.4492V71.7692H312.379V70.4492H311.059ZM243.594 70.4492H242.274V71.7692H243.594V70.4492ZM243.594 4.93968H244.914V3.61966H243.594V4.93968ZM201.795 4.93968V3.61966H200.475V4.93968H201.795ZM201.795 178.002H200.475V179.322H201.795V178.002ZM243.594 178.002V179.322H244.914V178.002H243.594ZM243.594 105.648V104.328H242.274V105.648H243.594ZM311.059 105.648H312.379V104.328H311.059V105.648ZM311.059 178.002H309.739V179.322H311.059V178.002ZM354.178 178.002V4.93968H351.538V178.002H354.178ZM352.858 3.61966H311.059V6.2597H352.858V3.61966ZM309.739 4.93968V70.4492H312.379V4.93968H309.739ZM311.059 69.1292H243.594V71.7692H311.059V69.1292ZM244.914 70.4492V4.93968H242.274V70.4492H244.914ZM243.594 3.61966H201.795V6.2597H243.594V3.61966ZM200.475 4.93968V178.002H203.115V4.93968H200.475ZM201.795 179.322H243.594V176.682H201.795V179.322ZM244.914 178.002V105.648H242.274V178.002H244.914ZM243.594 106.968H311.059V104.328H243.594V106.968ZM309.739 105.648V178.002H312.379V105.648H309.739ZM311.059 179.322H352.858V176.682H311.059V179.322ZM551.262 4.93968L552.361 5.6719L553.729 3.61966H551.262V4.93968ZM502.375 4.93968V3.61966H501.612L501.231 4.28054L502.375 4.93968ZM465.464 68.9826L464.321 69.6417L465.464 71.6261L466.608 69.6417L465.464 68.9826ZM428.554 4.93968L429.698 4.28054L429.317 3.61966H428.554V4.93968ZM377.955 4.93968V3.61966H375.519L376.85 5.6606L377.955 4.93968ZM442.976 104.671H444.296V104.278L444.082 103.95L442.976 104.671ZM442.976 178.002H441.656V179.322H442.976V178.002ZM484.775 178.002V179.322H486.095V178.002H484.775ZM484.775 104.671L483.677 103.938L483.455 104.271V104.671H484.775ZM551.262 3.61966H502.375V6.2597H551.262V3.61966ZM501.231 4.28054L464.321 68.3234L466.608 69.6417L503.518 5.59882L501.231 4.28054ZM466.608 68.3234L429.698 4.28054L427.41 5.59882L464.321 69.6417L466.608 68.3234ZM428.554 3.61966H377.955V6.2597H428.554V3.61966ZM376.85 5.6606L441.87 105.392L444.082 103.95L379.061 4.21876L376.85 5.6606ZM441.656 104.671V178.002H444.296V104.671H441.656ZM442.976 179.322H484.775V176.682H442.976V179.322ZM486.095 178.002V104.671H483.455V178.002H486.095ZM485.873 105.403L552.361 5.6719L550.164 4.20746L483.677 103.938L485.873 105.403ZM723.089 4.93968H724.409V3.61966H723.089V4.93968ZM681.29 4.93968V3.61966H679.97V4.93968H681.29ZM616.27 4.93968H617.59V3.61966H616.27V4.93968ZM574.715 4.93968V3.61966H573.395V4.93968H574.715ZM724.409 112.737V4.93968H721.769V112.737H724.409ZM723.089 3.61966H681.29V6.2597H723.089V3.61966ZM679.97 4.93968V109.315H682.61V4.93968H679.97ZM679.97 109.315C679.97 118.421 677.81 127.019 672.887 133.312C668.004 139.553 660.281 143.683 648.78 143.683V146.323C660.989 146.323 669.522 141.898 674.966 134.939C680.37 128.032 682.61 118.786 682.61 109.315H679.97ZM648.78 143.683C637.404 143.683 629.678 139.556 624.762 133.309C619.807 127.013 617.59 118.414 617.59 109.315H614.95C614.95 118.794 617.254 128.038 622.688 134.942C628.16 141.895 636.689 146.323 648.78 146.323V143.683ZM617.59 109.315V4.93968H614.95V109.315H617.59ZM616.27 3.61966H574.715V6.2597H616.27V3.61966ZM573.395 4.93968V112.737H576.035V4.93968H573.395ZM573.395 112.737C573.395 133.824 580.596 151.662 593.661 164.226C606.721 176.787 625.526 183.967 648.535 183.967V181.327C626.079 181.327 607.974 174.329 595.491 162.323C583.011 150.322 576.035 133.205 576.035 112.737H573.395ZM648.535 183.967C671.423 183.967 690.406 176.787 703.677 164.234C716.955 151.675 724.409 133.837 724.409 112.737H721.769C721.769 133.192 714.558 150.308 701.863 162.316C689.163 174.329 670.869 181.327 648.535 181.327V183.967ZM892.065 40.6277V41.9477H893.385V40.6277H892.065ZM892.065 4.93968H893.385V3.61966H892.065V4.93968ZM752.491 4.93968V3.61966H751.171V4.93968H752.491ZM752.491 40.6277H751.171V41.9477H752.491V40.6277ZM801.378 40.6277H802.698V39.3077H801.378V40.6277ZM801.378 178.002H800.058V179.322H801.378V178.002ZM843.177 178.002V179.322H844.497V178.002H843.177ZM843.177 40.6277V39.3077H841.857V40.6277H843.177ZM893.385 40.6277V4.93968H890.745V40.6277H893.385ZM892.065 3.61966H752.491V6.2597H892.065V3.61966ZM751.171 4.93968V40.6277H753.811V4.93968H751.171ZM752.491 41.9477H801.378V39.3077H752.491V41.9477ZM800.058 40.6277V178.002H802.698V40.6277H800.058ZM801.378 179.322H843.177V176.682H801.378V179.322ZM844.497 178.002V40.6277H841.857V178.002H844.497ZM843.177 41.9477H892.065V39.3077H843.177V41.9477ZM1074.43 178.002V179.322H1075.75V178.002H1074.43ZM1074.43 4.93968H1075.75V3.61966H1074.43V4.93968ZM1032.63 4.93968V3.61966H1031.31V4.93968H1032.63ZM1032.63 70.4492V71.7692H1033.95V70.4492H1032.63ZM965.166 70.4492H963.846V71.7692H965.166V70.4492ZM965.166 4.93968H966.486V3.61966H965.166V4.93968ZM923.367 4.93968V3.61966H922.047V4.93968H923.367ZM923.367 178.002H922.047V179.322H923.367V178.002ZM965.166 178.002V179.322H966.486V178.002H965.166ZM965.166 105.648V104.328H963.846V105.648H965.166ZM1032.63 105.648H1033.95V104.328H1032.63V105.648ZM1032.63 178.002H1031.31V179.322H1032.63V178.002ZM1075.75 178.002V4.93968H1073.11V178.002H1075.75ZM1074.43 3.61966H1032.63V6.2597H1074.43V3.61966ZM1031.31 4.93968V70.4492H1033.95V4.93968H1031.31ZM1032.63 69.1292H965.166V71.7692H1032.63V69.1292ZM966.486 70.4492V4.93968H963.846V70.4492H966.486ZM965.166 3.61966H923.367V6.2597H965.166V3.61966ZM922.047 4.93968V178.002H924.687V4.93968H922.047ZM923.367 179.322H965.166V176.682H923.367V179.322ZM966.486 178.002V105.648H963.846V178.002H966.486ZM965.166 106.968H1032.63V104.328H965.166V106.968ZM1031.31 105.648V178.002H1033.95V105.648H1031.31ZM1032.63 179.322H1074.43V176.682H1032.63V179.322ZM1164.3 178.002V179.322H1165.62V178.002H1164.3ZM1164.3 4.93968H1165.62V3.61966H1164.3V4.93968ZM1122.26 4.93968V3.61966H1120.94V4.93968H1122.26ZM1122.26 178.002H1120.94V179.322H1122.26V178.002ZM1165.62 178.002V4.93968H1162.98V178.002H1165.62ZM1164.3 3.61966H1122.26V6.2597H1164.3V3.61966ZM1120.94 4.93968V178.002H1123.58V4.93968H1120.94ZM1122.26 179.322H1164.3V176.682H1122.26V179.322ZM1417.38 144.27V145.59H1418.7V144.27H1417.38ZM1417.38 111.026H1418.7V109.706H1417.38V111.026ZM1393.43 111.026H1392.11V112.346H1393.43V111.026ZM1393.43 4.93968H1394.75V3.61966H1393.43V4.93968ZM1344.3 4.93968V3.61966H1343.59L1343.2 4.20393L1344.3 4.93968ZM1273.9 109.804L1272.8 109.068L1272.58 109.402V109.804H1273.9ZM1273.9 144.27H1272.58V145.59H1273.9V144.27ZM1355.3 144.27H1356.62V142.95H1355.3V144.27ZM1355.3 178.002H1353.98V179.322H1355.3V178.002ZM1393.67 178.002V179.322H1394.99V178.002H1393.67ZM1393.67 144.27V142.95H1392.35V144.27H1393.67ZM1355.54 111.026V112.346H1356.86V111.026H1355.54ZM1313.74 111.026L1312.63 110.313L1311.33 112.346H1313.74V111.026ZM1354.81 46.9831V45.6631H1354.09L1353.7 46.2706L1354.81 46.9831ZM1355.54 46.9831H1356.86V45.6631H1355.54V46.9831ZM1418.7 144.27V111.026H1416.06V144.27H1418.7ZM1417.38 109.706H1393.43V112.346H1417.38V109.706ZM1394.75 111.026V4.93968H1392.11V111.026H1394.75ZM1393.43 3.61966H1344.3V6.2597H1393.43V3.61966ZM1343.2 4.20393L1272.8 109.068L1274.99 110.54L1345.39 5.67543L1343.2 4.20393ZM1272.58 109.804V144.27H1275.22V109.804H1272.58ZM1273.9 145.59H1355.3V142.95H1273.9V145.59ZM1353.98 144.27V178.002H1356.62V144.27H1353.98ZM1355.3 179.322H1393.67V176.682H1355.3V179.322ZM1394.99 178.002V144.27H1392.35V178.002H1394.99ZM1393.67 145.59H1417.38V142.95H1393.67V145.59ZM1355.54 109.706H1313.74V112.346H1355.54V109.706ZM1314.85 111.739L1355.92 47.6956L1353.7 46.2706L1312.63 110.313L1314.85 111.739ZM1354.81 48.3031H1355.54V45.6631H1354.81V48.3031ZM1354.22 46.9831V111.026H1356.86V46.9831H1354.22ZM1500.71 156.492C1500.71 142.275 1488.83 131.217 1474.95 131.217V133.857C1487.46 133.857 1498.07 143.819 1498.07 156.492H1500.71ZM1474.95 131.217C1460.56 131.217 1448.69 142.773 1448.69 156.736H1451.33C1451.33 144.299 1461.95 133.857 1474.95 133.857V131.217ZM1448.69 156.736C1448.69 170.994 1460.86 181.767 1474.95 181.767V179.127C1462.14 179.127 1451.33 169.366 1451.33 156.736H1448.69ZM1474.95 181.767C1488.83 181.767 1500.71 170.708 1500.71 156.492H1498.07C1498.07 169.164 1487.46 179.127 1474.95 179.127V181.767ZM1671.52 90.9821C1671.52 66.404 1666.86 43.4444 1655.91 26.5868C1644.91 9.65191 1627.63 -1.02469 1602.74 -1.02469V1.61535C1626.74 1.61535 1643.19 11.8383 1653.7 28.0248C1664.26 44.2886 1668.88 66.6724 1668.88 90.9821H1671.52ZM1602.74 -1.02469C1577.73 -1.02469 1560.33 9.64869 1549.23 26.5825C1538.19 43.4404 1533.47 66.4014 1533.47 90.9821H1536.11C1536.11 66.675 1540.79 44.2926 1551.44 28.0291C1562.04 11.8415 1578.62 1.61535 1602.74 1.61535V-1.02469ZM1533.47 90.9821C1533.47 115.684 1538.19 138.886 1549.23 155.956C1560.32 173.101 1577.72 183.967 1602.74 183.967V181.327C1578.63 181.327 1562.05 170.926 1551.45 154.522C1540.79 138.042 1536.11 115.412 1536.11 90.9821H1533.47ZM1602.74 183.967C1627.64 183.967 1644.92 173.098 1655.92 155.951C1666.86 138.882 1671.52 115.682 1671.52 90.9821H1668.88C1668.88 115.415 1664.26 138.046 1653.69 154.526C1643.18 170.929 1626.73 181.327 1602.74 181.327V183.967ZM1626.84 90.9821C1626.84 102.06 1625.86 116.012 1622.26 127.15C1618.64 138.358 1612.58 146.127 1602.74 146.127V148.767C1614.41 148.767 1621.06 139.426 1624.77 127.962C1628.5 116.429 1629.48 102.148 1629.48 90.9821H1626.84ZM1602.74 146.127C1592.76 146.127 1586.59 138.34 1582.88 127.141C1579.19 116.005 1578.15 102.055 1578.15 90.9821H1575.51C1575.51 102.153 1576.55 116.436 1580.37 127.972C1584.18 139.444 1590.96 148.767 1602.74 148.767V146.127ZM1578.15 90.9821C1578.15 80.1551 1579.19 66.3277 1582.88 55.2531C1586.59 44.1153 1592.76 36.3256 1602.74 36.3256V33.6856C1590.96 33.6856 1584.18 43.0067 1580.37 54.4183C1576.55 65.8932 1575.51 80.054 1575.51 90.9821H1578.15ZM1602.74 36.3256C1612.58 36.3256 1618.64 44.0971 1622.26 55.2439C1625.86 66.3208 1626.84 80.1504 1626.84 90.9821H1629.48C1629.48 80.0587 1628.5 65.9001 1624.77 54.4275C1621.06 43.0248 1614.41 33.6856 1602.74 33.6856V36.3256Z" fill="url(#paint0_linear_30_24810)"/>
<defs>
<linearGradient id="paint0_linear_30_24810" x1="832" y1="-24.9978" x2="832" y2="256.002" gradientUnits="userSpaceOnUse">
<stop stop-color="white"/>
<stop offset="0.0001" stop-color="white"/>
<stop offset="1" stop-opacity="0"/>
</linearGradient>
</defs>
</svg>
