<svg width="1671" height="170" viewBox="0 0 1671 170" fill="none" xmlns="http://www.w3.org/2000/svg">
<path opacity="0.9" d="M0.276697 -8.06252V-9.38254H-1.04333V-8.06252H0.276697ZM0.276697 165H-1.04333V166.32H0.276697V165ZM41.0979 128.823H39.7779V130.143H41.0979V128.823ZM41.0979 27.6255V26.3055H39.7779V27.6255H41.0979ZM163.171 77.9799C163.171 44.84 150.531 22.9118 131.545 9.31928C112.629 -4.2228 87.5703 -9.38254 62.853 -9.38254V-6.7425C87.2678 -6.7425 111.708 -1.63582 130.008 11.4659C148.238 24.5172 160.531 45.6102 160.531 77.9799H163.171ZM62.853 -9.38254H0.276697V-6.7425H62.853V-9.38254ZM-1.04333 -8.06252V165H1.59672V-8.06252H-1.04333ZM0.276697 166.32H64.8085V163.68H0.276697V166.32ZM64.8085 166.32C88.8603 166.32 113.426 159.724 132.011 145.359C150.641 130.959 163.171 108.817 163.171 77.9799H160.531C160.531 108.008 148.372 129.376 130.397 143.27C112.378 157.198 88.4222 163.68 64.8085 163.68V166.32ZM117.021 77.9799C117.021 96.9365 110.265 109.226 100.016 116.824C89.6994 124.473 75.6609 127.503 60.8975 127.503V130.143C75.9555 130.143 90.6386 127.063 101.588 118.945C112.605 110.777 119.661 97.6445 119.661 77.9799H117.021ZM60.8975 127.503H41.0979V130.143H60.8975V127.503ZM42.418 128.823V27.6255H39.7779V128.823H42.418ZM41.0979 28.9455H61.8752V26.3055H41.0979V28.9455ZM61.8752 28.9455C76.1565 28.9455 89.9499 31.7953 100.142 39.2914C110.264 46.7354 117.021 58.8989 117.021 77.9799H119.661C119.661 58.1951 112.607 45.1814 101.706 37.1646C90.877 29.2 76.4377 26.3055 61.8752 26.3055V28.9455ZM352.858 165V166.32H354.178V165H352.858ZM352.858 -8.06252H354.178V-9.38254H352.858V-8.06252ZM311.059 -8.06252V-9.38254H309.739V-8.06252H311.059ZM311.059 57.447V58.767H312.379V57.447H311.059ZM243.594 57.447H242.274V58.767H243.594V57.447ZM243.594 -8.06252H244.914V-9.38254H243.594V-8.06252ZM201.795 -8.06252V-9.38254H200.475V-8.06252H201.795ZM201.795 165H200.475V166.32H201.795V165ZM243.594 165V166.32H244.914V165H243.594ZM243.594 92.6462V91.3262H242.274V92.6462H243.594ZM311.059 92.6462H312.379V91.3262H311.059V92.6462ZM311.059 165H309.739V166.32H311.059V165ZM354.178 165V-8.06252H351.538V165H354.178ZM352.858 -9.38254H311.059V-6.7425H352.858V-9.38254ZM309.739 -8.06252V57.447H312.379V-8.06252H309.739ZM311.059 56.127H243.594V58.767H311.059V56.127ZM244.914 57.447V-8.06252H242.274V57.447H244.914ZM243.594 -9.38254H201.795V-6.7425H243.594V-9.38254ZM200.475 -8.06252V165H203.115V-8.06252H200.475ZM201.795 166.32H243.594V163.68H201.795V166.32ZM244.914 165V92.6462H242.274V165H244.914ZM243.594 93.9662H311.059V91.3262H243.594V93.9662ZM309.739 92.6462V165H312.379V92.6462H309.739ZM311.059 166.32H352.858V163.68H311.059V166.32ZM551.262 -8.06252L552.361 -7.3303L553.729 -9.38254H551.262V-8.06252ZM502.375 -8.06252V-9.38254H501.612L501.231 -8.72166L502.375 -8.06252ZM465.464 55.9804L464.321 56.6395L465.464 58.6239L466.608 56.6395L465.464 55.9804ZM428.554 -8.06252L429.698 -8.72166L429.317 -9.38254H428.554V-8.06252ZM377.955 -8.06252V-9.38254H375.519L376.85 -7.3416L377.955 -8.06252ZM442.976 91.6684H444.296V91.2761L444.082 90.9475L442.976 91.6684ZM442.976 165H441.656V166.32H442.976V165ZM484.775 165V166.32H486.095V165H484.775ZM484.775 91.6684L483.677 90.9362L483.455 91.2688V91.6684H484.775ZM551.262 -9.38254H502.375V-6.7425H551.262V-9.38254ZM501.231 -8.72166L464.321 55.3213L466.608 56.6395L503.518 -7.40338L501.231 -8.72166ZM466.608 55.3213L429.698 -8.72166L427.41 -7.40338L464.321 56.6395L466.608 55.3213ZM428.554 -9.38254H377.955V-6.7425H428.554V-9.38254ZM376.85 -7.3416L441.87 92.3893L444.082 90.9475L379.061 -8.78344L376.85 -7.3416ZM441.656 91.6684V165H444.296V91.6684H441.656ZM442.976 166.32H484.775V163.68H442.976V166.32ZM486.095 165V91.6684H483.455V165H486.095ZM485.873 92.4006L552.361 -7.3303L550.164 -8.79473L483.677 90.9362L485.873 92.4006ZM723.089 -8.06252H724.409V-9.38254H723.089V-8.06252ZM681.29 -8.06252V-9.38254H679.97V-8.06252H681.29ZM616.27 -8.06252H617.59V-9.38254H616.27V-8.06252ZM574.715 -8.06252V-9.38254H573.395V-8.06252H574.715ZM724.409 99.7349V-8.06252H721.769V99.7349H724.409ZM723.089 -9.38254H681.29V-6.7425H723.089V-9.38254ZM679.97 -8.06252V96.3128H682.61V-8.06252H679.97ZM679.97 96.3128C679.97 105.419 677.81 114.017 672.887 120.31C668.004 126.551 660.281 130.681 648.78 130.681V133.321C660.989 133.321 669.522 128.895 674.966 121.937C680.37 115.03 682.61 105.784 682.61 96.3128H679.97ZM648.78 130.681C637.404 130.681 629.678 126.553 624.762 120.307C619.807 114.011 617.59 105.411 617.59 96.3128H614.95C614.95 105.791 617.254 115.036 622.688 121.94C628.16 128.893 636.689 133.321 648.78 133.321V130.681ZM617.59 96.3128V-8.06252H614.95V96.3128H617.59ZM616.27 -9.38254H574.715V-6.7425H616.27V-9.38254ZM573.395 -8.06252V99.7349H576.035V-8.06252H573.395ZM573.395 99.7349C573.395 120.822 580.596 138.66 593.661 151.224C606.721 163.785 625.526 170.964 648.535 170.964V168.324C626.079 168.324 607.974 161.327 595.491 149.321C583.011 137.319 576.035 120.203 576.035 99.7349H573.395ZM648.535 170.964C671.423 170.964 690.406 163.785 703.677 151.232C716.955 138.673 724.409 120.835 724.409 99.7349H721.769C721.769 120.189 714.558 137.306 701.863 149.314C689.163 161.327 670.869 168.324 648.535 168.324V170.964ZM892.065 27.6255V28.9455H893.385V27.6255H892.065ZM892.065 -8.06252H893.385V-9.38254H892.065V-8.06252ZM752.491 -8.06252V-9.38254H751.171V-8.06252H752.491ZM752.491 27.6255H751.171V28.9455H752.491V27.6255ZM801.378 27.6255H802.698V26.3055H801.378V27.6255ZM801.378 165H800.058V166.32H801.378V165ZM843.177 165V166.32H844.497V165H843.177ZM843.177 27.6255V26.3055H841.857V27.6255H843.177ZM893.385 27.6255V-8.06252H890.745V27.6255H893.385ZM892.065 -9.38254H752.491V-6.7425H892.065V-9.38254ZM751.171 -8.06252V27.6255H753.811V-8.06252H751.171ZM752.491 28.9455H801.378V26.3055H752.491V28.9455ZM800.058 27.6255V165H802.698V27.6255H800.058ZM801.378 166.32H843.177V163.68H801.378V166.32ZM844.497 165V27.6255H841.857V165H844.497ZM843.177 28.9455H892.065V26.3055H843.177V28.9455ZM1074.43 165V166.32H1075.75V165H1074.43ZM1074.43 -8.06252H1075.75V-9.38254H1074.43V-8.06252ZM1032.63 -8.06252V-9.38254H1031.31V-8.06252H1032.63ZM1032.63 57.447V58.767H1033.95V57.447H1032.63ZM965.166 57.447H963.846V58.767H965.166V57.447ZM965.166 -8.06252H966.486V-9.38254H965.166V-8.06252ZM923.367 -8.06252V-9.38254H922.047V-8.06252H923.367ZM923.367 165H922.047V166.32H923.367V165ZM965.166 165V166.32H966.486V165H965.166ZM965.166 92.6462V91.3262H963.846V92.6462H965.166ZM1032.63 92.6462H1033.95V91.3262H1032.63V92.6462ZM1032.63 165H1031.31V166.32H1032.63V165ZM1075.75 165V-8.06252H1073.11V165H1075.75ZM1074.43 -9.38254H1032.63V-6.7425H1074.43V-9.38254ZM1031.31 -8.06252V57.447H1033.95V-8.06252H1031.31ZM1032.63 56.127H965.166V58.767H1032.63V56.127ZM966.486 57.447V-8.06252H963.846V57.447H966.486ZM965.166 -9.38254H923.367V-6.7425H965.166V-9.38254ZM922.047 -8.06252V165H924.687V-8.06252H922.047ZM923.367 166.32H965.166V163.68H923.367V166.32ZM966.486 165V92.6462H963.846V165H966.486ZM965.166 93.9662H1032.63V91.3262H965.166V93.9662ZM1031.31 92.6462V165H1033.95V92.6462H1031.31ZM1032.63 166.32H1074.43V163.68H1032.63V166.32ZM1164.3 165V166.32H1165.62V165H1164.3ZM1164.3 -8.06252H1165.62V-9.38254H1164.3V-8.06252ZM1122.26 -8.06252V-9.38254H1120.94V-8.06252H1122.26ZM1122.26 165H1120.94V166.32H1122.26V165ZM1165.62 165V-8.06252H1162.98V165H1165.62ZM1164.3 -9.38254H1122.26V-6.7425H1164.3V-9.38254ZM1120.94 -8.06252V165H1123.58V-8.06252H1120.94ZM1122.26 166.32H1164.3V163.68H1122.26V166.32ZM1417.38 131.267V132.587H1418.7V131.267H1417.38ZM1417.38 98.0238H1418.7V96.7038H1417.38V98.0238ZM1393.43 98.0238H1392.11V99.3438H1393.43V98.0238ZM1393.43 -8.06252H1394.75V-9.38254H1393.43V-8.06252ZM1344.3 -8.06252V-9.38254H1343.59L1343.2 -8.79827L1344.3 -8.06252ZM1273.9 96.8016L1272.8 96.0659L1272.58 96.3996V96.8016H1273.9ZM1273.9 131.267H1272.58V132.587H1273.9V131.267ZM1355.3 131.267H1356.62V129.947H1355.3V131.267ZM1355.3 165H1353.98V166.32H1355.3V165ZM1393.67 165V166.32H1394.99V165H1393.67ZM1393.67 131.267V129.947H1392.35V131.267H1393.67ZM1355.54 98.0238V99.3438H1356.86V98.0238H1355.54ZM1313.74 98.0238L1312.63 97.3113L1311.33 99.3438H1313.74V98.0238ZM1354.81 33.9809V32.6609H1354.09L1353.7 33.2684L1354.81 33.9809ZM1355.54 33.9809H1356.86V32.6609H1355.54V33.9809ZM1418.7 131.267V98.0238H1416.06V131.267H1418.7ZM1417.38 96.7038H1393.43V99.3438H1417.38V96.7038ZM1394.75 98.0238V-8.06252H1392.11V98.0238H1394.75ZM1393.43 -9.38254H1344.3V-6.7425H1393.43V-9.38254ZM1343.2 -8.79827L1272.8 96.0659L1274.99 97.5374L1345.39 -7.32677L1343.2 -8.79827ZM1272.58 96.8016V131.267H1275.22V96.8016H1272.58ZM1273.9 132.587H1355.3V129.947H1273.9V132.587ZM1353.98 131.267V165H1356.62V131.267H1353.98ZM1355.3 166.32H1393.67V163.68H1355.3V166.32ZM1394.99 165V131.267H1392.35V165H1394.99ZM1393.67 132.587H1417.38V129.947H1393.67V132.587ZM1355.54 96.7038H1313.74V99.3438H1355.54V96.7038ZM1314.85 98.7363L1355.92 34.6934L1353.7 33.2684L1312.63 97.3113L1314.85 98.7363ZM1354.81 35.3009H1355.54V32.6609H1354.81V35.3009ZM1354.22 33.9809V98.0238H1356.86V33.9809H1354.22ZM1500.71 143.489C1500.71 129.273 1488.83 118.214 1474.95 118.214V120.854C1487.46 120.854 1498.07 130.817 1498.07 143.489H1500.71ZM1474.95 118.214C1460.56 118.214 1448.69 129.771 1448.69 143.734H1451.33C1451.33 131.297 1461.95 120.854 1474.95 120.854V118.214ZM1448.69 143.734C1448.69 157.992 1460.86 168.764 1474.95 168.764V166.124C1462.14 166.124 1451.33 156.364 1451.33 143.734H1448.69ZM1474.95 168.764C1488.83 168.764 1500.71 157.706 1500.71 143.489H1498.07C1498.07 156.162 1487.46 166.124 1474.95 166.124V168.764ZM1671.52 77.9799C1671.52 53.4018 1666.86 30.4422 1655.91 13.5846C1644.91 -3.35029 1627.63 -14.0269 1602.74 -14.0269V-11.3868C1626.74 -11.3868 1643.19 -1.16394 1653.7 15.0226C1664.26 31.2864 1668.88 53.6702 1668.88 77.9799H1671.52ZM1602.74 -14.0269C1577.73 -14.0269 1560.33 -3.35351 1549.23 13.5803C1538.19 30.4382 1533.47 53.3992 1533.47 77.9799H1536.11C1536.11 53.6728 1540.79 31.2904 1551.44 15.0269C1562.04 -1.16072 1578.62 -11.3868 1602.74 -11.3868V-14.0269ZM1533.47 77.9799C1533.47 102.682 1538.19 125.884 1549.23 142.953C1560.32 160.099 1577.72 170.964 1602.74 170.964V168.324C1578.63 168.324 1562.05 157.924 1551.45 141.52C1540.79 125.04 1536.11 102.41 1536.11 77.9799H1533.47ZM1602.74 170.964C1627.64 170.964 1644.92 160.096 1655.92 142.949C1666.86 125.88 1671.52 102.679 1671.52 77.9799H1668.88C1668.88 102.413 1664.26 125.044 1653.69 141.524C1643.18 157.927 1626.73 168.324 1602.74 168.324V170.964ZM1626.84 77.9799C1626.84 89.0577 1625.86 103.01 1622.26 114.148C1618.64 125.356 1612.58 133.125 1602.74 133.125V135.765C1614.41 135.765 1621.06 126.424 1624.77 114.96C1628.5 103.427 1629.48 89.146 1629.48 77.9799H1626.84ZM1602.74 133.125C1592.76 133.125 1586.59 125.338 1582.88 114.139C1579.19 103.003 1578.15 89.053 1578.15 77.9799H1575.51C1575.51 89.1506 1576.55 103.434 1580.37 114.969C1584.18 126.442 1590.96 135.765 1602.74 135.765V133.125ZM1578.15 77.9799C1578.15 67.1529 1579.19 53.3255 1582.88 42.2509C1586.59 31.1131 1592.76 23.3234 1602.74 23.3234V20.6834C1590.96 20.6834 1584.18 30.0045 1580.37 41.4161C1576.55 52.891 1575.51 67.0518 1575.51 77.9799H1578.15ZM1602.74 23.3234C1612.58 23.3234 1618.64 31.0949 1622.26 42.2417C1625.86 53.3186 1626.84 67.1482 1626.84 77.9799H1629.48C1629.48 67.0565 1628.5 52.8979 1624.77 41.4253C1621.06 30.0226 1614.41 20.6834 1602.74 20.6834V23.3234Z" fill="url(#paint0_linear_30_24811)"/>
<defs>
<linearGradient id="paint0_linear_30_24811" x1="832" y1="-38" x2="832" y2="243" gradientUnits="userSpaceOnUse">
<stop stop-color="white"/>
<stop offset="0.0001" stop-color="white"/>
<stop offset="1" stop-opacity="0"/>
</linearGradient>
</defs>
</svg>
