<svg width="1671" height="183" viewBox="0 0 1671 183" fill="none" xmlns="http://www.w3.org/2000/svg">
<path opacity="0.9" d="M161.851 90.9843C161.851 25.4747 111.985 4.94188 62.853 4.94188H0.276696V178.004H64.8085C112.474 178.004 161.851 151.849 161.851 90.9843ZM118.341 90.9843C118.341 129.606 90.719 141.827 60.8975 141.827H41.0979V40.6299H61.8752C90.719 40.6299 118.341 52.1185 118.341 90.9843ZM352.858 178.004V4.94188H311.059V70.4514H243.594V4.94188H201.795V178.004H243.594V105.651H311.059V178.004H352.858ZM551.262 4.94188H502.375L465.464 68.9848L428.554 4.94188H377.955L442.976 104.673V178.004H484.775V104.673L551.262 4.94188ZM723.089 112.739V4.94188H681.29V109.317C681.29 127.894 672.49 145.005 648.78 145.005C625.314 145.005 616.27 127.894 616.27 109.317V4.94188H574.715V112.739C574.715 154.294 603.07 182.649 648.535 182.649C693.757 182.649 723.089 154.294 723.089 112.739ZM892.065 40.6299V4.94188H752.491V40.6299H801.378V178.004H843.177V40.6299H892.065ZM1074.43 178.004V4.94188H1032.63V70.4514H965.166V4.94188H923.367V178.004H965.166V105.651H1032.63V178.004H1074.43ZM1164.3 178.004V4.94188H1122.26V178.004H1164.3ZM1417.38 144.272V111.028H1393.43V4.94188H1344.3L1273.9 109.806V144.272H1355.3V178.004H1393.67V144.272H1417.38ZM1355.54 111.028H1313.74L1354.81 46.9853H1355.54V111.028ZM1499.39 156.494C1499.39 143.05 1488.15 132.539 1474.95 132.539C1461.26 132.539 1450.01 143.539 1450.01 156.738C1450.01 170.182 1461.5 180.449 1474.95 180.449C1488.15 180.449 1499.39 169.938 1499.39 156.494ZM1670.2 90.9843C1670.2 42.0965 1651.63 0.29753 1602.74 0.29753C1553.61 0.29753 1534.79 42.0965 1534.79 90.9843C1534.79 140.116 1553.61 182.649 1602.74 182.649C1651.63 182.649 1670.2 140.116 1670.2 90.9843ZM1628.16 90.9843C1628.16 113.228 1624.25 147.45 1602.74 147.45C1580.98 147.45 1576.83 113.228 1576.83 90.9843C1576.83 69.2292 1580.98 35.0078 1602.74 35.0078C1624.25 35.0078 1628.16 69.2292 1628.16 90.9843Z" fill="url(#paint0_linear_31_208)" fill-opacity="0.3"/>
<defs>
<linearGradient id="paint0_linear_31_208" x1="832" y1="1.68161" x2="832" y2="256.004" gradientUnits="userSpaceOnUse">
<stop stop-color="white" stop-opacity="0.934375"/>
<stop offset="1" stop-opacity="0"/>
</linearGradient>
</defs>
</svg>
