<svg width="34" height="27" viewBox="0 0 34 27" fill="none" xmlns="http://www.w3.org/2000/svg">
<path d="M6 6.5C6 5.30653 6.47411 4.16193 7.31802 3.31802C8.16193 2.47411 9.30653 2 10.5 2C11.6935 2 12.8381 2.47411 13.682 3.31802C14.5259 4.16193 15 5.30653 15 6.5C15 7.69347 14.5259 8.83807 13.682 9.68198C12.8381 10.5259 11.6935 11 10.5 11C9.30653 11 8.16193 10.5259 7.31802 9.68198C6.47411 8.83807 6 7.69347 6 6.5V6.5ZM10.5 0C8.77609 0 7.12279 0.684819 5.90381 1.90381C4.68482 3.12279 4 4.77609 4 6.5C4 8.22391 4.68482 9.87721 5.90381 11.0962C7.12279 12.3152 8.77609 13 10.5 13C12.2239 13 13.8772 12.3152 15.0962 11.0962C16.3152 9.87721 17 8.22391 17 6.5C17 4.77609 16.3152 3.12279 15.0962 1.90381C13.8772 0.684819 12.2239 0 10.5 0V0ZM21.874 23.29C22.95 23.73 24.304 24 26 24C29.762 24 31.842 22.664 32.938 21.132C33.5098 20.3281 33.8683 19.3922 33.98 18.412C33.99 18.3209 33.9967 18.2295 34 18.138V18C34 17.606 33.9224 17.2159 33.7716 16.8519C33.6209 16.488 33.3999 16.1573 33.1213 15.8787C32.8427 15.6001 32.512 15.3791 32.148 15.2284C31.7841 15.0776 31.394 15 31 15H21.74C22.22 15.58 22.58 16.258 22.79 17H31C31.2652 17 31.5196 17.1054 31.7071 17.2929C31.8946 17.4804 32 17.7348 32 18V18.108L31.99 18.208C31.9134 18.8421 31.6797 19.4471 31.31 19.968C30.656 20.886 29.236 22 26 22C24.536 22 23.444 21.772 22.626 21.438C22.462 21.998 22.224 22.63 21.874 23.29V23.29ZM0 19C0 17.9391 0.421427 16.9217 1.17157 16.1716C1.92172 15.4214 2.93913 15 4 15H17C18.0609 15 19.0783 15.4214 19.8284 16.1716C20.5786 16.9217 21 17.9391 21 19V19.168C21 19.188 21 19.214 20.996 19.248C20.9717 19.644 20.9148 20.0373 20.826 20.424C20.656 21.16 20.318 22.144 19.636 23.132C18.234 25.16 15.526 27 10.5 27C5.474 27 2.766 25.16 1.364 23.132C0.625648 22.0565 0.165266 20.8149 0.0239999 19.518C0.0120489 19.4016 0.00404435 19.2849 0 19.168V19V19ZM2 19.12V19.156L2.014 19.322C2.12237 20.2807 2.46437 21.1982 3.01 21.994C3.984 23.402 6.026 25 10.5 25C14.974 25 17.016 23.402 17.99 21.994C18.5358 21.1983 18.8778 20.2808 18.986 19.322C18.9926 19.2669 18.9966 19.2115 18.998 19.156L19 19.122V19C19 18.4696 18.7893 17.9609 18.4142 17.5858C18.0391 17.2107 17.5304 17 17 17H4C3.46957 17 2.96086 17.2107 2.58579 17.5858C2.21071 17.9609 2 18.4696 2 19V19.12ZM23 8C23 7.20435 23.3161 6.44129 23.8787 5.87868C24.4413 5.31607 25.2044 5 26 5C26.7956 5 27.5587 5.31607 28.1213 5.87868C28.6839 6.44129 29 7.20435 29 8C29 8.79565 28.6839 9.55871 28.1213 10.1213C27.5587 10.6839 26.7956 11 26 11C25.2044 11 24.4413 10.6839 23.8787 10.1213C23.3161 9.55871 23 8.79565 23 8V8ZM26 3C24.6739 3 23.4021 3.52678 22.4645 4.46447C21.5268 5.40215 21 6.67392 21 8C21 9.32608 21.5268 10.5979 22.4645 11.5355C23.4021 12.4732 24.6739 13 26 13C27.3261 13 28.5979 12.4732 29.5355 11.5355C30.4732 10.5979 31 9.32608 31 8C31 6.67392 30.4732 5.40215 29.5355 4.46447C28.5979 3.52678 27.3261 3 26 3V3Z" fill="white"/>
</svg>
