<svg width="30" height="28" viewBox="0 0 30 28" fill="none" xmlns="http://www.w3.org/2000/svg">
<path d="M27.9413 8.03345H2.52549C2.07674 8.03345 1.64638 8.21171 1.32907 8.52902C1.01176 8.84633 0.833496 9.27669 0.833496 9.72544V26.1413C0.833496 26.5901 1.01176 27.0204 1.32907 27.3378C1.64638 27.6551 2.07674 27.8333 2.52549 27.8333H27.9413C28.3901 27.8333 28.8204 27.6551 29.1378 27.3378C29.4551 27.0204 29.6333 26.5901 29.6333 26.1413V9.72544C29.6333 9.27669 29.4551 8.84633 29.1378 8.52902C28.8204 8.21171 28.3901 8.03345 27.9413 8.03345V8.03345ZM27.8333 26.0333H2.63349V9.83344H27.8333V26.0333Z" fill="white"/>
<path d="M6.73734 16.5382C7.27134 16.5382 7.79336 16.3798 8.23737 16.0831C8.68138 15.7864 9.02744 15.3648 9.2318 14.8714C9.43615 14.3781 9.48962 13.8352 9.38544 13.3114C9.28126 12.7877 9.02411 12.3066 8.64651 11.929C8.26892 11.5514 7.78782 11.2942 7.26408 11.1901C6.74033 11.0859 6.19746 11.1394 5.7041 11.3437C5.21074 11.5481 4.78906 11.8941 4.49238 12.3381C4.19571 12.7821 4.03735 13.3042 4.03735 13.8382C4.03735 14.5543 4.32182 15.241 4.82816 15.7473C5.33451 16.2537 6.02126 16.5382 6.73734 16.5382V16.5382ZM6.73734 12.3982C7.02357 12.391 7.30543 12.4694 7.54692 12.6232C7.78842 12.777 7.97857 12.9993 8.0931 13.2617C8.20764 13.5241 8.24134 13.8147 8.18991 14.0964C8.13848 14.378 8.00425 14.638 7.80437 14.843C7.60449 15.048 7.34804 15.1887 7.06777 15.2473C6.7875 15.3058 6.49614 15.2795 6.23092 15.1716C5.96569 15.0638 5.73863 14.8793 5.57875 14.6418C5.41888 14.4043 5.33344 14.1245 5.33335 13.8382C5.33323 13.4624 5.47999 13.1015 5.7423 12.8325C6.00462 12.5634 6.3617 12.4076 6.73734 12.3982V12.3982Z" fill="white"/>
<path d="M6.14332 24.2333L11.5433 18.8333L14.4053 21.6953L11.8673 24.2333H13.6673L20.3812 17.5193L26.0332 23.1263V21.3263L20.8132 16.1333C20.6936 16.0146 20.5318 15.948 20.3632 15.948C20.1947 15.948 20.0329 16.0146 19.9132 16.1333L15.2693 20.7773L11.9663 17.4833C11.8466 17.3646 11.6849 17.298 11.5163 17.298C11.3477 17.298 11.186 17.3646 11.0663 17.4833L4.36133 24.2333H6.14332Z" fill="white"/>
<path d="M26.1592 1.73325C26.1592 1.49455 26.0644 1.26564 25.8956 1.09685C25.7268 0.928073 25.4979 0.833252 25.2592 0.833252H5.45932C5.22063 0.833252 4.99171 0.928073 4.82293 1.09685C4.65415 1.26564 4.55933 1.49455 4.55933 1.73325V2.63324H26.1592V1.73325Z" fill="white"/>
<path d="M27.9411 5.33334C27.9411 5.09465 27.8462 4.86573 27.6775 4.69695C27.5087 4.52817 27.2798 4.43335 27.0411 4.43335H3.64121C3.40251 4.43335 3.1736 4.52817 3.00481 4.69695C2.83603 4.86573 2.74121 5.09465 2.74121 5.33334V6.23334H27.9411V5.33334Z" fill="white"/>
</svg>
