<svg width="28" height="27" viewBox="0 0 28 27" fill="none" xmlns="http://www.w3.org/2000/svg">
<path d="M15.2303 0.399212C15.1049 0.272715 14.9556 0.172312 14.7911 0.103794C14.6267 0.0352764 14.4503 0 14.2721 0C14.0939 0 13.9175 0.0352764 13.7531 0.103794C13.5886 0.172312 13.4393 0.272715 13.3139 0.399212L1.1674 12.5457C1.0409 12.6712 0.940501 12.8204 0.871983 12.9849C0.803465 13.1493 0.768188 13.3257 0.768188 13.5039C0.768188 13.6821 0.803465 13.8585 0.871983 14.0229C0.940501 14.1874 1.0409 14.3367 1.1674 14.4621C1.29351 14.5872 1.44307 14.6862 1.6075 14.7533C1.77193 14.8205 1.94801 14.8545 2.12562 14.8535H3.47523V24.3008C3.47523 25.0167 3.75961 25.7032 4.26581 26.2094C4.77202 26.7156 5.45857 27 6.17445 27H22.3698C23.0856 27 23.7722 26.7156 24.2784 26.2094C24.7846 25.7032 25.069 25.0167 25.069 24.3008V14.8535H26.4186C26.7765 14.8535 27.1198 14.7113 27.3729 14.4582C27.626 14.2051 27.7682 13.8619 27.7682 13.5039C27.7692 13.3263 27.7352 13.1502 27.668 12.9858C27.6008 12.8214 27.5019 12.6718 27.3768 12.5457L15.2303 0.399212ZM6.17445 24.3008V11.358L14.2721 3.26038L22.3698 11.358V24.3008H6.17445Z" fill="white"/>
</svg>
