<svg width="73" height="73" viewBox="0 0 73 73" fill="none" xmlns="http://www.w3.org/2000/svg">
<path d="M36.3373 50.6598C44.2186 50.6598 50.6077 44.2707 50.6077 36.3894C50.6077 28.508 44.2186 22.119 36.3373 22.119C28.456 22.119 22.0669 28.508 22.0669 36.3894C22.0669 44.2707 28.456 50.6598 36.3373 50.6598Z" stroke="#FA41FE" stroke-width="5.70816" stroke-miterlimit="10"/>
<path d="M52.0375 3.56757H20.6426C11.185 3.56757 3.51807 11.2345 3.51807 20.6921V52.087C3.51807 61.5445 11.185 69.2114 20.6426 69.2114H52.0375C61.495 69.2114 69.1619 61.5445 69.1619 52.087V20.6921C69.1619 11.2345 61.495 3.56757 52.0375 3.56757Z" stroke="#FA41FE" stroke-width="5.70816" stroke-linecap="round" stroke-linejoin="round"/>
<path d="M54.8915 22.1189C57.2559 22.1189 59.1726 20.2022 59.1726 17.8378C59.1726 15.4734 57.2559 13.5567 54.8915 13.5567C52.5271 13.5567 50.6104 15.4734 50.6104 17.8378C50.6104 20.2022 52.5271 22.1189 54.8915 22.1189Z" fill="#FA41FE"/>
</svg>
