<svg width="40" height="27" viewBox="0 0 40 27" fill="none" xmlns="http://www.w3.org/2000/svg">
<path d="M17.1534 0.148364C17.4076 0.270807 17.6221 0.46244 17.7723 0.701265C17.9225 0.94009 18.0023 1.21643 18.0025 1.49855V25.5019C18.0021 25.7842 17.9221 26.0607 17.7716 26.2995C17.6211 26.5384 17.4063 26.7299 17.1518 26.8521C16.8974 26.9743 16.6136 27.0223 16.3331 26.9904C16.0526 26.9586 15.7868 26.8482 15.5662 26.6721L8.47619 21.0013H1.50021C1.10233 21.0013 0.720745 20.8432 0.439401 20.5619C0.158057 20.2805 0 19.899 0 19.5011V7.4994C0 7.10152 0.158057 6.71993 0.439401 6.43859C0.720745 6.15724 1.10233 5.99919 1.50021 5.99919H8.47619L15.5662 0.328389C15.7869 0.151928 16.053 0.0414082 16.3338 0.00955841C16.6147 -0.0222914 16.8987 0.0258244 17.1534 0.148364ZM15.0021 4.61899L9.93739 8.66956C9.67184 8.88261 9.34172 8.999 9.00126 8.99961H3.00042V18.0009H9.00126C9.34172 18.0015 9.67184 18.1179 9.93739 18.3309L15.0021 22.3815V4.61899ZM38.5674 6.43725C38.7071 6.5766 38.818 6.74215 38.8936 6.92441C38.9692 7.10668 39.0082 7.30207 39.0082 7.4994C39.0082 7.69673 38.9692 7.89212 38.8936 8.07438C38.818 8.25664 38.7071 8.42219 38.5674 8.56155L33.6257 13.5002L38.5674 18.4389C38.8491 18.7206 39.0074 19.1027 39.0074 19.5011C39.0074 19.8995 38.8491 20.2815 38.5674 20.5632C38.2857 20.8449 37.9036 21.0032 37.5053 21.0032C37.1069 21.0032 36.7248 20.8449 36.4431 20.5632L31.5044 15.6215L26.5657 20.5632C26.284 20.8449 25.902 21.0032 25.5036 21.0032C25.1052 21.0032 24.7231 20.8449 24.4414 20.5632C24.1597 20.2815 24.0015 19.8995 24.0015 19.5011C24.0015 19.1027 24.1597 18.7206 24.4414 18.4389L29.3831 13.5002L24.4414 8.56155C24.3019 8.42206 24.1913 8.25647 24.1158 8.07423C24.0403 7.89198 24.0015 7.69666 24.0015 7.4994C24.0015 7.30214 24.0403 7.10681 24.1158 6.92456C24.1913 6.74232 24.3019 6.57673 24.4414 6.43725C24.7231 6.15555 25.1052 5.99729 25.5036 5.99729C25.7008 5.99729 25.8962 6.03614 26.0784 6.11163C26.2607 6.18712 26.4262 6.29776 26.5657 6.43725L31.5044 11.3789L36.4431 6.43725C36.5825 6.29754 36.748 6.18669 36.9303 6.11106C37.1125 6.03543 37.3079 5.9965 37.5053 5.9965C37.7026 5.9965 37.898 6.03543 38.0802 6.11106C38.2625 6.18669 38.4281 6.29754 38.5674 6.43725Z" fill="white"/>
</svg>
