<svg width="28" height="28" viewBox="0 0 28 28" fill="none" xmlns="http://www.w3.org/2000/svg">
<path d="M13.75 16.45C14.017 16.45 14.278 16.3708 14.5 16.2225C14.722 16.0741 14.8951 15.8633 14.9972 15.6166C15.0994 15.3699 15.1262 15.0985 15.0741 14.8366C15.022 14.5748 14.8934 14.3342 14.7046 14.1454C14.5158 13.9566 14.2752 13.828 14.0134 13.7759C13.7515 13.7238 13.4801 13.7506 13.2334 13.8528C12.9867 13.9549 12.7759 14.128 12.6275 14.35C12.4792 14.572 12.4 14.833 12.4 15.1C12.4 15.458 12.5422 15.8014 12.7954 16.0546C13.0486 16.3078 13.392 16.45 13.75 16.45ZM20.5 16.45C20.767 16.45 21.028 16.3708 21.25 16.2225C21.472 16.0741 21.6451 15.8633 21.7472 15.6166C21.8494 15.3699 21.8762 15.0985 21.8241 14.8366C21.772 14.5748 21.6434 14.3342 21.4546 14.1454C21.2658 13.9566 21.0252 13.828 20.7634 13.7759C20.5015 13.7238 20.2301 13.7506 19.9834 13.8528C19.7367 13.9549 19.5259 14.128 19.3775 14.35C19.2292 14.572 19.15 14.833 19.15 15.1C19.15 15.458 19.2922 15.8014 19.5454 16.0546C19.7986 16.3078 20.142 16.45 20.5 16.45ZM13.75 21.85C14.017 21.85 14.278 21.7708 14.5 21.6225C14.722 21.4741 14.8951 21.2633 14.9972 21.0166C15.0994 20.7699 15.1262 20.4985 15.0741 20.2366C15.022 19.9748 14.8934 19.7342 14.7046 19.5454C14.5158 19.3566 14.2752 19.228 14.0134 19.1759C13.7515 19.1239 13.4801 19.1506 13.2334 19.2528C12.9867 19.3549 12.7759 19.528 12.6275 19.75C12.4792 19.972 12.4 20.233 12.4 20.5C12.4 20.858 12.5422 21.2014 12.7954 21.4546C13.0486 21.7078 13.392 21.85 13.75 21.85ZM20.5 21.85C20.767 21.85 21.028 21.7708 21.25 21.6225C21.472 21.4741 21.6451 21.2633 21.7472 21.0166C21.8494 20.7699 21.8762 20.4985 21.8241 20.2366C21.772 19.9748 21.6434 19.7342 21.4546 19.5454C21.2658 19.3566 21.0252 19.228 20.7634 19.1759C20.5015 19.1239 20.2301 19.1506 19.9834 19.2528C19.7367 19.3549 19.5259 19.528 19.3775 19.75C19.2292 19.972 19.15 20.233 19.15 20.5C19.15 20.858 19.2922 21.2014 19.5454 21.4546C19.7986 21.7078 20.142 21.85 20.5 21.85ZM7 16.45C7.267 16.45 7.52801 16.3708 7.75002 16.2225C7.97203 16.0741 8.14506 15.8633 8.24724 15.6166C8.34942 15.3699 8.37615 15.0985 8.32406 14.8366C8.27197 14.5748 8.14339 14.3342 7.95459 14.1454C7.76579 13.9566 7.52525 13.828 7.26337 13.7759C7.0015 13.7238 6.73006 13.7506 6.48338 13.8528C6.2367 13.9549 6.02586 14.128 5.87752 14.35C5.72918 14.572 5.65 14.833 5.65 15.1C5.65 15.458 5.79223 15.8014 6.04541 16.0546C6.29858 16.3078 6.64196 16.45 7 16.45ZM23.2 2.95H21.85V1.6C21.85 1.24196 21.7078 0.89858 21.4546 0.645406C21.2014 0.392232 20.858 0.25 20.5 0.25C20.142 0.25 19.7986 0.392232 19.5454 0.645406C19.2922 0.89858 19.15 1.24196 19.15 1.6V2.95H8.35V1.6C8.35 1.24196 8.20777 0.89858 7.95459 0.645406C7.70142 0.392232 7.35804 0.25 7 0.25C6.64196 0.25 6.29858 0.392232 6.04541 0.645406C5.79223 0.89858 5.65 1.24196 5.65 1.6V2.95H4.3C3.22587 2.95 2.19574 3.3767 1.43622 4.13622C0.676695 4.89574 0.25 5.92587 0.25 7V23.2C0.25 24.2741 0.676695 25.3043 1.43622 26.0638C2.19574 26.8233 3.22587 27.25 4.3 27.25H23.2C24.2741 27.25 25.3043 26.8233 26.0638 26.0638C26.8233 25.3043 27.25 24.2741 27.25 23.2V7C27.25 5.92587 26.8233 4.89574 26.0638 4.13622C25.3043 3.3767 24.2741 2.95 23.2 2.95V2.95ZM24.55 23.2C24.55 23.558 24.4078 23.9014 24.1546 24.1546C23.9014 24.4078 23.558 24.55 23.2 24.55H4.3C3.94196 24.55 3.59858 24.4078 3.34541 24.1546C3.09223 23.9014 2.95 23.558 2.95 23.2V11.05H24.55V23.2ZM24.55 8.35H2.95V7C2.95 6.64196 3.09223 6.29858 3.34541 6.04541C3.59858 5.79223 3.94196 5.65 4.3 5.65H23.2C23.558 5.65 23.9014 5.79223 24.1546 6.04541C24.4078 6.29858 24.55 6.64196 24.55 7V8.35ZM7 21.85C7.267 21.85 7.52801 21.7708 7.75002 21.6225C7.97203 21.4741 8.14506 21.2633 8.24724 21.0166C8.34942 20.7699 8.37615 20.4985 8.32406 20.2366C8.27197 19.9748 8.14339 19.7342 7.95459 19.5454C7.76579 19.3566 7.52525 19.228 7.26337 19.1759C7.0015 19.1239 6.73006 19.1506 6.48338 19.2528C6.2367 19.3549 6.02586 19.528 5.87752 19.75C5.72918 19.972 5.65 20.233 5.65 20.5C5.65 20.858 5.79223 21.2014 6.04541 21.4546C6.29858 21.7078 6.64196 21.85 7 21.85Z" fill="white"/>
</svg>
