<svg width="44" height="27" viewBox="0 0 44 27" fill="none" xmlns="http://www.w3.org/2000/svg">
<path d="M10.8 4.99536V7.42536H13.5V4.99536H10.8ZM29.7 4.99536V7.42536H32.4V4.99536H29.7ZM10.8 9.85536V12.2854H13.5V9.85536H10.8ZM29.7 9.85536V12.2854H32.4V9.85536H29.7ZM10.8 14.7154V17.1454H13.5V14.7154H10.8ZM29.7 14.7154V17.1454H32.4V14.7154H29.7ZM10.8 19.5754V22.0054H13.5V19.5754H10.8ZM29.7 19.5754V22.0054H32.4V19.5754H29.7Z" fill="white"/>
<path d="M4.05 0C2.97587 0 1.94574 0.426695 1.18622 1.18622C0.426695 1.94574 0 2.97587 0 4.05L0 8.1C0 8.45804 0.142232 8.80142 0.395406 9.05459C0.64858 9.30777 0.991958 9.45 1.35 9.45C2.42413 9.45 3.45426 9.87669 4.21378 10.6362C4.9733 11.3957 5.4 12.4259 5.4 13.5C5.4 14.5741 4.9733 15.6043 4.21378 16.3638C3.45426 17.1233 2.42413 17.55 1.35 17.55C0.991958 17.55 0.64858 17.6922 0.395406 17.9454C0.142232 18.1986 0 18.542 0 18.9L0 22.95C0 24.0241 0.426695 25.0543 1.18622 25.8138C1.94574 26.5733 2.97587 27 4.05 27H39.15C40.2241 27 41.2543 26.5733 42.0138 25.8138C42.7733 25.0543 43.2 24.0241 43.2 22.95V18.9C43.2 18.542 43.0578 18.1986 42.8046 17.9454C42.5514 17.6922 42.208 17.55 41.85 17.55C40.7759 17.55 39.7457 17.1233 38.9862 16.3638C38.2267 15.6043 37.8 14.5741 37.8 13.5C37.8 12.4259 38.2267 11.3957 38.9862 10.6362C39.7457 9.87669 40.7759 9.45 41.85 9.45C42.208 9.45 42.5514 9.30777 42.8046 9.05459C43.0578 8.80142 43.2 8.45804 43.2 8.1V4.05C43.2 2.97587 42.7733 1.94574 42.0138 1.18622C41.2543 0.426695 40.2241 0 39.15 0H4.05ZM2.7 4.05C2.7 3.69196 2.84223 3.34858 3.09541 3.09541C3.34858 2.84223 3.69196 2.7 4.05 2.7H39.15C39.508 2.7 39.8514 2.84223 40.1046 3.09541C40.3578 3.34858 40.5 3.69196 40.5 4.05V6.885C38.9741 7.19485 37.6023 8.02269 36.6169 9.22825C35.6315 10.4338 35.0932 11.943 35.0932 13.5C35.0932 15.057 35.6315 16.5662 36.6169 17.7717C37.6023 18.9773 38.9741 19.8052 40.5 20.115V22.95C40.5 23.308 40.3578 23.6514 40.1046 23.9046C39.8514 24.1578 39.508 24.3 39.15 24.3H4.05C3.69196 24.3 3.34858 24.1578 3.09541 23.9046C2.84223 23.6514 2.7 23.308 2.7 22.95V20.115C4.22589 19.8052 5.59774 18.9773 6.58311 17.7717C7.56848 16.5662 8.10677 15.057 8.10677 13.5C8.10677 11.943 7.56848 10.4338 6.58311 9.22825C5.59774 8.02269 4.22589 7.19485 2.7 6.885V4.05Z" fill="white"/>
</svg>
