<svg width="81" height="64" viewBox="0 0 81 64" fill="none" xmlns="http://www.w3.org/2000/svg">
<path d="M52.1875 32.1225L35.063 20.7062V43.5388L52.1875 32.1225Z" stroke="#F40000" stroke-width="5.70816" stroke-linecap="round" stroke-linejoin="round"/>
<path d="M3.66943 32.1225C3.66943 42.7539 4.77539 48.9615 5.59594 52.1724C5.82219 53.0436 6.25003 53.8494 6.84495 54.5249C7.43986 55.2004 8.18519 55.7266 9.02084 56.0611C20.9723 60.6276 40.7725 60.5206 40.7725 60.5206C40.7725 60.5206 60.5727 60.6276 72.5242 56.0611C73.3598 55.7266 74.1051 55.2004 74.7 54.5249C75.295 53.8494 75.7228 53.0436 75.9491 52.1724C76.7696 48.9615 77.8756 42.7539 77.8756 32.1225C77.8756 21.491 76.7696 15.2834 75.9491 12.0725C75.7228 11.2013 75.295 10.3955 74.7 9.72001C74.1051 9.04454 73.3598 8.51833 72.5242 8.18384C60.5727 3.61731 40.7725 3.72434 40.7725 3.72434C40.7725 3.72434 20.9723 3.61731 9.02084 8.18384C8.18519 8.51833 7.43986 9.04454 6.84495 9.72001C6.25003 10.3955 5.82219 11.2013 5.59594 12.0725C4.77539 15.2834 3.66943 21.491 3.66943 32.1225Z" stroke="#F40000" stroke-width="5.70816" stroke-linecap="round" stroke-linejoin="round"/>
</svg>
